<?xml version="1.0" encoding="UTF-8"?>
<svg id="Layer_1" xmlns="http://www.w3.org/2000/svg" version="1.1" viewBox="0 0 873.4 300.9">
  <!-- Generator: Adobe Illustrator 29.1.0, SVG Export Plug-In . SVG Version: 2.1.0 Build 142)  -->
  <defs>
    <style>
      .st0 {
        fill: #fff;
      }
    </style>
  </defs>
  <g>
    <path class="st0" d="M0,64.8h40.3c29,0,48.9,17.5,48.9,44.4s-19.9,44.4-48.9,44.4H0s0-88.8,0-88.8ZM39.3,136.7c17.6,0,29.2-10.5,29.2-27.5s-11.5-27.5-29.2-27.5h-18.8v55h18.8Z"/>
    <path class="st0" d="M130.1,64.8h20.6v88.8h-20.6v-88.8Z"/>
    <path class="st0" d="M257.1,107.7h18.8v36c-9.8,7.4-23.2,11.3-35.9,11.3-27.9,0-48.5-19.2-48.5-45.9s20.5-45.9,48.8-45.9,28.5,5.3,37.2,15.4l-13.2,12.2c-6.5-6.9-14-10-23-10-17.2,0-29,11.5-29,28.4s11.8,28.4,28.8,28.4,10.8-1,16-3.8v-26h0Z"/>
    <path class="st0" d="M320.2,64.8h20.5v88.8h-20.5v-88.8Z"/>
    <path class="st0" d="M464.9,64.8l-39.3,88.8h-9.3l-39.3-88.8h10.1l34,77.1,34.2-77.1h9.5,0Z"/>
    <path class="st0" d="M503.1,64.8h9.4v88.8h-9.4v-88.8Z"/>
    <path class="st0" d="M558.3,142.7l3.7-7.2c6.3,6.2,17.6,10.8,29.3,10.8,16.6,0,23.8-7,23.8-15.7,0-24.4-54.7-9.4-54.7-42.2s10.2-24.4,32.7-24.4,20.4,2.9,27.5,7.9l-3.2,7.5c-7.6-5-16.5-7.4-24.3-7.4-16.2,0-23.5,7.2-23.5,16.1,0,24.4,54.7,9.6,54.7,42s-10.4,24.2-33.1,24.2-26.4-4.7-33-11.5h0Z"/>
    <path class="st0" d="M662.3,109.1c0-25.9,19.8-45.1,46.7-45.1s46.5,19.1,46.5,45.1-19.9,45.1-46.5,45.1-46.7-19.3-46.7-45.1ZM746.1,109.1c0-21.2-15.8-36.8-37.2-36.8s-37.4,15.6-37.4,36.8,16,36.8,37.4,36.8,37.2-15.6,37.2-36.8Z"/>
    <path class="st0" d="M862.5,153.5l-20.3-28.5c-2.3.2-4.6.4-7.1.4h-23.8v28.2h-9.4v-88.8h33.2c22.6,0,36.3,11.4,36.3,30.4s-7.4,23.7-20.3,27.9l21.7,30.4h-10.3ZM862,95.2c0-14.2-9.4-22.3-27.1-22.3h-23.6v44.5h23.6c17.8,0,27.1-8.2,27.1-22.2Z"/>
  </g>
  <g>
    <path class="st0" d="M151.4,223.8h3.8v10.8c-2.8,2.3-6.6,3.5-10.5,3.5-8.5,0-14.8-6-14.8-14.2s6.3-14.2,14.9-14.2,8.1,1.5,10.7,4.3l-2.5,2.5c-2.3-2.2-4.9-3.2-8.1-3.2-6.4,0-11.1,4.5-11.1,10.7s4.6,10.7,11,10.7,4.5-.5,6.5-1.8v-9h0Z"/>
    <path class="st0" d="M201.3,237.9l-6-8.5c-.6,0-1.1,0-1.8,0h-6.9v8.5h-4v-27.8h10.8c7.2,0,11.6,3.7,11.6,9.7s-2.2,7.4-6.1,8.8l6.6,9.3h-4.3,0ZM201.1,219.8c0-4-2.7-6.2-7.7-6.2h-6.8v12.5h6.8c5.1,0,7.7-2.3,7.7-6.3h0Z"/>
    <path class="st0" d="M229.1,224c0-8.1,6.3-14.2,14.8-14.2s14.7,6,14.7,14.2-6.3,14.2-14.7,14.2-14.8-6.1-14.8-14.2ZM254.7,224c0-6.2-4.6-10.7-10.8-10.7s-10.8,4.5-10.8,10.7,4.6,10.7,10.8,10.7,10.8-4.5,10.8-10.7Z"/>
    <path class="st0" d="M323,210.1l-9.3,27.8h-4.2l-7.6-22.2-7.6,22.2h-4.2l-9.3-27.8h4.1l7.5,22.6,7.8-22.6h3.6l7.7,22.7,7.7-22.7h3.8Z"/>
    <path class="st0" d="M353.4,213.5h-9.5v-3.5h23v3.5h-9.5v24.3h-3.9v-24.3Z"/>
    <path class="st0" d="M415,210.1v27.8h-4v-12.4h-16v12.4h-4v-27.8h4v12h16v-12h4Z"/>
    <polygon class="st0" points="478 227.7 484 214.1 490 227.7 491.4 230.9 494.5 237.9 498.6 237.9 486 210.1 482.1 210.1 469.5 237.9 473.6 237.9 476.6 230.9 478 227.7"/>
    <path class="st0" d="M541.5,223.8h3.8v10.8c-2.8,2.3-6.6,3.5-10.5,3.5-8.5,0-14.8-6-14.8-14.2s6.3-14.2,14.9-14.2,8.1,1.5,10.7,4.3l-2.5,2.5c-2.3-2.2-4.9-3.2-8.1-3.2-6.4,0-11.1,4.5-11.1,10.7s4.6,10.7,11,10.7,4.5-.5,6.5-1.8v-9h0Z"/>
    <path class="st0" d="M592.8,234.4v3.5h-20.2v-27.8h19.6v3.5h-15.6v8.5h13.9v3.4h-13.9v9h16.2,0Z"/>
    <path class="st0" d="M643,210.1v27.8h-3.3l-16.7-20.7v20.7h-4v-27.8h3.3l16.7,20.7v-20.7h4Z"/>
    <path class="st0" d="M669,224c0-8.2,6.3-14.2,14.7-14.2s8,1.5,10.6,4.3l-2.6,2.5c-2.1-2.3-4.8-3.3-7.8-3.3-6.3,0-10.9,4.5-10.9,10.7s4.6,10.7,10.9,10.7,5.7-1.1,7.8-3.3l2.6,2.5c-2.5,2.9-6.3,4.4-10.6,4.4-8.4,0-14.7-6-14.7-14.2h0Z"/>
    <path class="st0" d="M729.9,228.3v9.6h-3.9v-9.7l-11-18.1h4.2l8.9,14.7,8.9-14.7h3.9l-11,18.2h0Z"/>
  </g>
</svg>