<?xml version="1.0" encoding="UTF-8"?>
<svg id="Layer_1" xmlns="http://www.w3.org/2000/svg" xmlns:xlink="http://www.w3.org/1999/xlink" version="1.1" viewBox="0 0 240.9 153.1">
  <!-- Generator: Adobe Illustrator 30.0.0, SVG Export Plug-In . SVG Version: 2.1.1 Build 123)  -->
  <defs>
    <style>
      .st0, .st1, .st2 {
        fill: none;
      }

      .st3 {
        fill-rule: evenodd;
      }

      .st3, .st4 {
        fill: #fff;
      }

      .st5 {
        fill: url(#radial-gradient);
      }

      .st1 {
        stroke: #000;
        stroke-width: .3px;
      }

      .st2 {
        clip-rule: evenodd;
      }

      .st2, .st6 {
        opacity: .5;
      }

      .st7 {
        clip-path: url(#clippath-1);
      }

      .st8 {
        clip-path: url(#clippath-2);
      }

      .st9 {
        fill: url(#linear-gradient);
        opacity: .4;
      }

      .st10 {
        clip-path: url(#clippath);
      }
    </style>
    <radialGradient id="radial-gradient" cx="142.4" cy="-10.9" fx="142.4" fy="-10.9" r="137.1" gradientTransform="translate(50.3 98.2) rotate(-45.4) scale(1 1)" gradientUnits="userSpaceOnUse">
      <stop offset=".1" stop-color="#00b9f1"/>
      <stop offset=".6" stop-color="#005d7e"/>
      <stop offset=".9" stop-color="#002234"/>
      <stop offset="1" stop-color="#000c18"/>
    </radialGradient>
    <clipPath id="clippath">
      <rect class="st0" x="0" y="-1.4" width="240.9" height="155.9"/>
    </clipPath>
    <clipPath id="clippath-1">
      <rect class="st0" x="-17.5" y="-3.9" width="275.9" height="160.9"/>
    </clipPath>
    <clipPath id="clippath-2">
      <path class="st2" d="M226,97.2h0s.2,0,.2,0h0s-.2,0-.2,0ZM222.7,95.7h0s.2,0,.2,0h0s-.2,0-.2,0ZM224.3,96.3h-.3c0-.1.5.1.5.1h.3c0,.1-.5-.1-.5-.1ZM219.5,94.4h0s.2,0,.2,0h0s-.2,0-.2,0ZM221,95c-.1,0-.2,0-.4-.1l.5.2h.3c0,.1-.5-.1-.5-.1ZM222.6,95.5c-.2,0-.4-.1-.5-.2.2.1.5.2.7.3.2,0,.4.1.5.2l-.7-.3ZM216.3,93.1h0s.2,0,.2,0h0s-.2,0-.2,0ZM217.8,93.6h-.4c0-.1.5.1.5.1h.3c0,.1-.5-.1-.5-.1ZM219.3,94.1c-.2,0-.4-.1-.5-.2l.7.3c.2,0,.3.1.5.2l-.7-.3ZM220.9,94.7c-.2,0-.4-.1-.7-.2l.9.4c.2,0,.4.2.7.2-.3-.1-.6-.3-.9-.4ZM213.1,91.9h0s.2,0,.2,0h0s-.2,0-.2,0ZM214.6,92.4h-.4c0-.1.5.1.5.1h.4c0,.1-.5-.1-.5-.1ZM216.1,92.9c-.2,0-.4-.1-.5-.2l.7.3c.2,0,.4.1.5.2l-.7-.3ZM217.7,93.3c-.2,0-.4-.1-.7-.2l.9.4c.2,0,.4.2.7.2-.3-.1-.6-.3-.9-.4ZM219.2,93.8c-.3,0-.5-.2-.8-.2.3.2.7.3,1,.5.3,0,.5.2.8.3l-1-.5ZM209.9,90.7h-.1s.2,0,.2,0h0s-.2,0-.2,0ZM211.4,91.1h-.4c0-.1.5,0,.5,0h.4c0,.1-.5,0-.5,0ZM212.9,91.6l-.5-.2.7.3.5.2-.7-.3ZM214.4,92.1c-.2,0-.4-.1-.7-.2l.9.4c.2,0,.4.1.7.2-.3-.1-.6-.3-.9-.4ZM215.9,92.5c-.3,0-.5-.2-.8-.2l1,.5c.3,0,.5.2.8.2l-1-.5ZM217.4,93c-.3,0-.5-.2-.8-.2.4.2.7.3,1.1.5.3,0,.5.2.8.3l-1.1-.5ZM206.7,89.5h-.1s.2,0,.2,0h0s-.2,0-.2,0ZM208.3,90h-.4c0-.1.5,0,.5,0h.4c0,.1-.5,0-.5,0ZM209.8,90.4c-.2,0-.4-.1-.5-.2l.7.3.5.2-.7-.3ZM211.3,90.9c-.2,0-.4-.1-.7-.2l.9.4c.2,0,.4.1.7.2-.3-.1-.6-.3-.9-.4ZM212.7,91.3c-.3,0-.5-.1-.8-.2.3.1.7.3,1,.4.3,0,.5.2.8.2l-1-.5ZM214.2,91.7c-.3,0-.6-.2-.8-.2.4.2.7.3,1.1.5.3,0,.6.2.8.3l-1.1-.5ZM215.7,92.1c-.3,0-.6-.2-.9-.2.4.2.8.4,1.2.6.3,0,.6.2.9.3-.4-.2-.8-.4-1.2-.6ZM203.6,88.5h-.1s.2,0,.2,0h.1s-.2,0-.2,0ZM205.1,88.9c-.1,0-.3,0-.4-.1l.5.2h.4c0,.1-.5,0-.5,0ZM206.6,89.3c-.2,0-.4-.1-.6-.2l.7.3.6.2-.7-.3ZM208.1,89.7c-.2,0-.4-.1-.7-.2l.9.4c.2,0,.4.1.7.2-.3-.1-.6-.2-.9-.4ZM209.6,90.1c-.3,0-.5-.1-.8-.2l1,.4c.3,0,.5.1.8.2l-1-.4ZM211,90.5c-.3,0-.6-.1-.8-.2.4.2.7.3,1.1.5.3,0,.6.2.8.2l-1.1-.5ZM212.5,90.9c-.3,0-.6-.2-.9-.2.4.2.8.4,1.1.5.3,0,.6.2.9.2-.4-.2-.8-.4-1.2-.6ZM214,91.3c-.3,0-.6-.2-.9-.2l1.2.6c.3,0,.6.2.9.3l-1.2-.6ZM200.5,87.5h-.1s.3,0,.3,0h.1s-.2,0-.2,0ZM202,87.8h-.4c0-.1.5,0,.5,0h.4c0,.1-.5,0-.5,0ZM203.5,88.2c-.2,0-.4,0-.6-.1l.7.3c.2,0,.4.1.6.2l-.7-.3ZM204.9,88.6c-.2,0-.4-.1-.7-.2l.9.3c.2,0,.4.1.7.2l-.9-.4ZM206.4,89c-.3,0-.5-.1-.8-.2.3.1.7.3,1,.4.3,0,.5.1.8.2l-1-.4ZM207.9,89.3c-.3,0-.6-.1-.8-.2l1.1.5c.3,0,.6.2.8.2l-1.1-.5ZM209.3,89.7c-.3,0-.6-.1-.9-.2.4.2.8.3,1.1.5.3,0,.6.2.9.2-.4-.2-.8-.4-1.1-.5ZM210.8,90.1c-.3,0-.6-.1-.9-.2l1.2.6c.3,0,.6.2.9.2l-1.2-.6ZM212.2,90.4c-.3,0-.6-.2-1-.2l1.3.6c.3,0,.6.2,1,.2l-1.3-.6ZM197.4,86.5h-.1s.3,0,.3,0h.1s-.2,0-.2,0ZM198.9,86.9h-.4c0,0,.5,0,.5,0,.1,0,.3,0,.4.1l-.5-.2ZM200.4,87.2c-.2,0-.4,0-.6-.1l.7.3c.2,0,.4,0,.6.1l-.7-.3ZM201.8,87.6c-.2,0-.5-.1-.7-.2l.9.3c.2,0,.5.1.7.2l-.9-.3ZM203.3,87.9c-.3,0-.5-.1-.8-.2l1,.4c.3,0,.5.1.8.2l-1-.4ZM204.7,88.3c-.3,0-.6-.1-.8-.2.4.1.7.3,1.1.4.3,0,.6.1.8.2l-1.1-.5ZM206.2,88.6c-.3,0-.6-.1-.9-.2l1.1.5c.3,0,.6.1.9.2l-1.1-.5ZM207.6,88.9c-.3,0-.6-.1-.9-.2l1.2.5c.3,0,.6.2.9.2l-1.2-.6ZM209.1,89.2c-.3,0-.6-.1-.9-.2.4.2.8.4,1.3.6.3,0,.6.2,1,.2l-1.3-.6ZM210.5,89.5c-.3,0-.6-.1-1-.2l1.3.6c.3,0,.7.2,1,.2l-1.3-.7ZM194.3,85.6h-.2s.3,0,.3,0h.1s-.2,0-.2,0ZM195.8,85.9h-.4c0,0,.5,0,.5,0h.4c0,0-.5,0-.5,0ZM197.3,86.3h-.6c0-.1.7.1.7.1h.6c0,.1-.7-.1-.7-.1ZM198.7,86.6c-.2,0-.5,0-.7-.1l.9.3c.2,0,.5.1.7.2l-.9-.3ZM200.2,86.9c-.3,0-.5-.1-.8-.2.3.1.7.3,1,.4.3,0,.5.1.8.2l-1-.4ZM201.6,87.2c-.3,0-.5-.1-.8-.2l1.1.4c.3,0,.6.1.8.2l-1.1-.4ZM203,87.5c-.3,0-.6-.1-.9-.2l1.1.5c.3,0,.6.1.9.2-.4-.2-.8-.3-1.1-.5ZM204.5,87.8c-.3,0-.6-.1-.9-.2l1.2.5c.3,0,.6.1.9.2l-1.2-.5ZM205.9,88.1c-.3,0-.6-.1-.9-.2.4.2.8.4,1.3.6.3,0,.6.1,1,.2l-1.3-.6ZM207.3,88.4c-.3,0-.6-.1-1-.2l1.3.6c.3,0,.7.1,1,.2l-1.3-.6ZM208.7,88.7c-.3,0-.7-.1-1-.2l1.4.7c.3,0,.7.1,1,.2l-1.4-.7ZM191.3,84.8h-.2s.3,0,.3,0h.2s-.3,0-.3,0ZM192.7,85.1h-.4c0,0,.5,0,.5,0h.4c0,0-.5,0-.5,0ZM194.2,85.4c-.2,0-.4,0-.6-.1l.7.2h.6c0,.1-.7-.1-.7-.1ZM195.6,85.7c-.2,0-.5,0-.7-.1l.9.3c.2,0,.5.1.7.2l-.9-.3ZM197.1,86c-.3,0-.5-.1-.8-.2.3.1.6.2,1,.4.3,0,.5.1.8.2l-1-.4ZM198.5,86.2c-.3,0-.6-.1-.8-.2l1.1.4c.3,0,.6.1.8.2l-1.1-.4ZM199.9,86.5c-.3,0-.6-.1-.9-.2l1.1.5c.3,0,.6.1.9.2l-1.1-.5ZM201.4,86.8c-.3,0-.6-.1-.9-.2l1.2.5c.3,0,.6.1.9.2l-1.2-.5ZM202.8,87c-.3,0-.6-.1-.9-.2l1.3.5c.3,0,.6.1,1,.2l-1.3-.6ZM204.2,87.3c-.3,0-.6-.1-1-.2l1.3.6c.3,0,.7.1,1,.2l-1.3-.6ZM205.6,87.5c-.3,0-.7-.1-1-.2l1.3.6c.3,0,.7.1,1,.2l-1.4-.7ZM207,87.8c-.3,0-.7-.1-1-.2l1.4.7c.3,0,.7.1,1,.2l-1.4-.7ZM188.3,84h-.2s.3,0,.3,0h.2s-.3,0-.3,0ZM189.7,84.3c-.1,0-.3,0-.4,0l.6.2h.4c0,0-.5,0-.5,0ZM191.1,84.5c-.2,0-.4,0-.6-.1l.7.2c.2,0,.4,0,.6.1l-.7-.2ZM192.6,84.8c-.2,0-.5,0-.7-.1l.9.3c.2,0,.5,0,.7.1l-.9-.3ZM194,85.1c-.3,0-.5,0-.8-.1l1,.3c.3,0,.5.1.8.2l-1-.4ZM195.4,85.3c-.3,0-.6,0-.8-.1l1.1.4c.3,0,.6.1.8.2l-1.1-.4ZM196.8,85.6c-.3,0-.6-.1-.9-.2l1.1.4c.3,0,.6.1.9.2l-1.1-.5ZM198.3,85.8c-.3,0-.6-.1-.9-.2l1.2.5c.3,0,.6.1.9.2l-1.2-.5ZM199.7,86c-.3,0-.6-.1-.9-.2l1.2.5c.3,0,.6.1,1,.2l-1.3-.5ZM201.1,86.3c-.3,0-.6-.1-1-.2l1.3.6c.3,0,.7.1,1,.2l-1.3-.6ZM202.4,86.5c-.3,0-.7-.1-1-.2l1.3.6c.3,0,.7.1,1,.2l-1.4-.6ZM203.8,86.7c-.3,0-.7-.1-1-.2l1.4.6c.3,0,.7.1,1,.2l-1.4-.7ZM205.2,86.9c-.3,0-.7-.1-1-.2l1.4.7c.3,0,.7.1,1,.2l-1.4-.7ZM185.3,83.3h-.2s.3,0,.3,0h.2s-.3,0-.3,0ZM186.7,83.5h-.4c0,0,.6,0,.6,0h.4c0,0-.6,0-.6,0ZM188.1,83.8h-.6c0,0,.7.1.7.1.2,0,.4,0,.6.1l-.7-.2ZM189.5,84c-.2,0-.5,0-.7-.1l.9.3c.2,0,.5,0,.7.1l-.9-.3ZM191,84.2c-.3,0-.5,0-.8-.1l1,.3c.3,0,.5,0,.8.1l-1-.3ZM192.4,84.5c-.3,0-.5,0-.8-.1l1.1.4c.3,0,.6,0,.8.1l-1.1-.4ZM193.8,84.7c-.3,0-.6,0-.9-.1l1.1.4c.3,0,.6.1.9.2l-1.1-.4ZM195.2,84.9c-.3,0-.6,0-.9-.1l1.2.5c.3,0,.6.1.9.2l-1.2-.5ZM196.6,85.1c-.3,0-.6,0-.9-.1l1.2.5c.3,0,.6.1.9.2l-1.2-.5ZM198,85.3c-.3,0-.6,0-1-.1l1.3.5c.3,0,.6.1,1,.2l-1.3-.6ZM199.3,85.5c-.3,0-.7,0-1-.1l1.3.6c.3,0,.7.1,1,.2l-1.3-.6ZM200.7,85.7c-.3,0-.7,0-1-.1l1.4.6c.3,0,.7.1,1,.2l-1.4-.6ZM202.1,85.9c-.3,0-.7,0-1-.1l1.4.7c.3,0,.7.1,1,.2l-1.4-.7ZM203.4,86c-.3,0-.7,0-1-.1l1.4.7c.3,0,.7.1,1,.2l-1.5-.7ZM182.3,82.6h-.2s.3,0,.3,0h.2s-.3,0-.3,0ZM183.7,82.9h-.4c0,0,.6,0,.6,0h.4c0,0-.6,0-.6,0ZM185.1,83.1h-.6c0,0,.7.1.7.1.2,0,.4,0,.6,0l-.7-.2ZM186.5,83.3h-.7c0,0,.9.2.9.2.2,0,.5,0,.7.1l-.9-.3ZM187.9,83.5c-.3,0-.5,0-.8-.1l1,.3c.3,0,.5,0,.8.1l-1-.3ZM189.3,83.7c-.3,0-.5,0-.8-.1l1.1.4c.3,0,.6,0,.8.1l-1.1-.4ZM190.7,83.9c-.3,0-.6,0-.9-.1l1.1.4c.3,0,.6,0,.9.1l-1.1-.4ZM192.1,84c-.3,0-.6,0-.9-.1l1.2.4c.3,0,.6,0,.9.1l-1.2-.5ZM193.5,84.2c-.3,0-.6,0-.9-.1l1.2.5c.3,0,.6,0,.9.1l-1.2-.5ZM194.9,84.4c-.3,0-.6,0-1-.1l1.3.5c.3,0,.6,0,1,.1l-1.3-.5ZM196.2,84.5c-.3,0-.7,0-1-.1l1.3.6c.3,0,.7,0,1,.1l-1.3-.6ZM197.6,84.7c-.3,0-.7,0-1-.1l1.4.6c.3,0,.7,0,1,.1l-1.4-.6ZM199,84.9c-.3,0-.7,0-1-.1l1.4.6c.3,0,.7,0,1,.1l-1.4-.7ZM200.3,85c-.3,0-.7,0-1-.1l1.4.7c.3,0,.7,0,1,.1l-1.5-.7ZM201.6,85.1c-.3,0-.7,0-1-.1l1.5.7c.3,0,.7,0,1,.1l-1-.5-.4-.2ZM179.3,82.1h-.2s.3,0,.3,0h.2s-.3,0-.3,0ZM180.7,82.2h-.4c0,0,.6,0,.6,0h.4c0,0-.6,0-.6,0ZM182.2,82.4c-.2,0-.4,0-.6,0l.7.2h.6c0,0-.7-.1-.7-.1ZM183.6,82.6c-.2,0-.5,0-.7,0l.9.2h.7c0,.1-.9-.2-.9-.2ZM184.9,82.8c-.3,0-.5,0-.8,0l1,.3c.3,0,.5,0,.8.1l-1-.3ZM186.3,82.9c-.3,0-.6,0-.8,0l1,.3c.3,0,.6,0,.8.1l-1.1-.4ZM187.7,83.1c-.3,0-.6,0-.9-.1l1.1.4c.3,0,.6,0,.9.1l-1.1-.4ZM189.1,83.2c-.3,0-.6,0-.9-.1l1.2.4c.3,0,.6,0,.9.1l-1.2-.4ZM190.5,83.4c-.3,0-.6,0-.9-.1l1.2.5c.3,0,.6,0,.9.1l-1.2-.5ZM191.8,83.5c-.3,0-.6,0-1-.1l1.3.5c.3,0,.6,0,1,.1l-1.3-.5ZM193.2,83.7c-.3,0-.7,0-1,0l1.3.5c.3,0,.7,0,1,.1l-1.3-.6ZM194.5,83.8c-.3,0-.7,0-1,0l1.4.6c.3,0,.7,0,1,.1l-1.4-.6ZM195.9,83.9c-.3,0-.7,0-1,0l1.4.6c.3,0,.7,0,1,.1l-1.2-.5h-.2ZM197.2,84c-.3,0-.7,0-1,0l1.4.6c.3,0,.7,0,1,.1l-.6-.3-.9-.4ZM198.5,84.2c-.3,0-.7,0-1,0l.6.3.9.4c.3,0,.7,0,1,.1l-1.5-.7ZM199.9,84.3c-.3,0-.7,0-1,0l1.3.6h.2c.3.1.7.2,1,.2l-1.5-.7ZM176.4,81.5h-.2s.3,0,.3,0h.2s-.3,0-.3,0ZM177.8,81.7h-.4s.6,0,.6,0h.4c0,0-.6,0-.6,0ZM179.2,81.8h-.6c0,0,.7.1.7.1h.6c0,0-.7-.1-.7-.1ZM180.6,82c-.2,0-.5,0-.7,0l.9.2c.2,0,.5,0,.7,0l-.9-.2ZM182,82.1c-.3,0-.5,0-.8,0l1,.3c.3,0,.5,0,.8,0l-1-.3ZM183.3,82.3c-.3,0-.5,0-.8,0l1,.3c.3,0,.6,0,.8.1l-1-.3ZM184.7,82.4c-.3,0-.6,0-.9,0l1.1.4c.3,0,.6,0,.9.1l-1.1-.4ZM186.1,82.5c-.3,0-.6,0-.9,0l1.2.4c.3,0,.6,0,.9.1l-1.2-.4ZM187.4,82.6c-.3,0-.6,0-.9,0l1.2.4c.3,0,.6,0,.9.1l-1.2-.5ZM188.8,82.7c-.3,0-.6,0-1,0l1.3.5c.3,0,.6,0,1,.1l-1.3-.5ZM190.1,82.9c-.3,0-.6,0-1,0l1.3.5c.3,0,.7,0,1,.1l-1.3-.5ZM191.5,83c-.3,0-.7,0-1,0l1.4.5c.3,0,.7,0,1,.1l-.8-.3-.6-.3ZM192.8,83.1c-.3,0-.7,0-1,0h.3c0,.1,1.1.6,1.1.6.3,0,.7,0,1,0h-.1c0,0-1.3-.6-1.3-.6ZM194.1,83.1c-.3,0-.7,0-1,0l1,.4.4.2c.3,0,.7,0,1,0l-1.4-.6ZM195.5,83.2c-.3,0-.7,0-1,0l1.5.7c.3,0,.7,0,1,0l-1.5-.7ZM196.8,83.3c-.3,0-.7,0-1,0l1.5.7c.3,0,.7,0,1,0l-1.5-.7ZM198.1,83.4c-.3,0-.7,0-1,0l1.5.7c.3,0,.7,0,1,0l-1.5-.8ZM173.5,81.1h-.2s.3,0,.3,0h.2s-.3,0-.3,0ZM174.9,81.2h-.4s.6,0,.6,0h.4s-.6,0-.6,0ZM176.3,81.3h-.6s.7.1.7.1h.6c0,0-.7-.1-.7-.1ZM177.7,81.4h-.7c0,0,.9.2.9.2.2,0,.5,0,.7,0l-.9-.2ZM179,81.5c-.3,0-.5,0-.8,0l1,.3c.3,0,.5,0,.8,0l-1-.3ZM180.4,81.6c-.3,0-.5,0-.8,0l1,.3c.3,0,.6,0,.8,0l-1-.3ZM181.7,81.7c-.3,0-.6,0-.9,0l1.1.3c.3,0,.6,0,.9,0l-1.1-.4ZM183.1,81.8c-.3,0-.6,0-.9,0l1.2.4c.3,0,.6,0,.9,0l-1.2-.4ZM184.4,81.9c-.3,0-.6,0-.9,0l1.2.4c.3,0,.6,0,.9,0l-1.2-.4ZM185.8,82c-.3,0-.6,0-.9,0l1.3.4c.3,0,.6,0,1,0l-1-.4h-.3ZM187.1,82.1c-.3,0-.6,0-1,0l1.3.5c.3,0,.7,0,1,0h-.4c0-.1-1-.5-1-.5ZM188.5,82.2c-.3,0-.7,0-1,0l.6.3.7.3c.3,0,.7,0,1,0l-1.4-.5ZM189.8,82.2c-.3,0-.7,0-1,0l1.3.5h0c.3,0,.7,0,1,0l-1.4-.6ZM191.1,82.3c-.3,0-.7,0-1,0l1.4.6c.3,0,.7,0,1,0l-1.4-.6ZM192.4,82.4c-.3,0-.7,0-1,0l1.4.6c.3,0,.7,0,1,0l-1.5-.7ZM193.7,82.4c-.3,0-.7,0-1,0l1.5.7c.3,0,.7,0,1,0l-1.5-.7ZM195,82.4c-.3,0-.7,0-1,0l1.5.7c.3,0,.7,0,1,0l-1.5-.7ZM196.3,82.5c-.3,0-.7,0-1,0l1.5.7c.3,0,.7,0,1,0l-1.5-.8ZM170.6,80.7h-.2s.3,0,.3,0h.2s-.3,0-.3,0ZM172,80.8h-.5s.6,0,.6,0h.4s-.6,0-.6,0ZM173.4,80.9h-.6s.7.1.7.1h.6c0,0-.7-.1-.7-.1ZM174.7,80.9c-.2,0-.5,0-.7,0l.9.2h.7c0,0-.9-.2-.9-.2ZM176.1,81c-.3,0-.5,0-.8,0l1,.2c.3,0,.5,0,.8,0l-1-.3ZM177.5,81.1c-.3,0-.5,0-.8,0l1,.3c.3,0,.6,0,.8,0l-1-.3ZM178.8,81.2c-.3,0-.6,0-.9,0l1.1.3c.3,0,.6,0,.9,0l-1.1-.3ZM180.1,81.2c-.3,0-.6,0-.9,0l1.2.3c.3,0,.6,0,.9,0l-1.2-.4ZM181.5,81.3c-.3,0-.6,0-.9,0l1.2.4c.3,0,.6,0,.9,0l-.6-.2-.6-.2ZM182.8,81.3c-.3,0-.6,0-.9,0h.3c0,0,1,.4,1,.4.3,0,.6,0,1,0l-1.3-.4ZM184.1,81.4c-.3,0-.6,0-1,0l1,.3h.3c.3.1.6.2,1,.2l-1.3-.5ZM185.5,81.4c-.3,0-.7,0-1,0l1.3.5c.3,0,.7,0,1,0l-1.3-.5ZM186.8,81.5c-.3,0-.7,0-1,0l1.4.5c.3,0,.7,0,1,0l-1.4-.6ZM188.1,81.5c-.3,0-.7,0-1,0l1.4.6c.3,0,.7,0,1,0l-1.4-.6ZM189.4,81.5c-.3,0-.7,0-1,0l1.4.6c.3,0,.7,0,1,0l-1.4-.6ZM190.7,81.6c-.3,0-.7,0-1,0l1.5.6c.3,0,.7,0,1,0l-1.5-.7ZM191.9,81.6c-.3,0-.7,0-1,0l1.5.7c.3,0,.7,0,1,0l-1.5-.7ZM193.2,81.6c-.3,0-.7,0-1,0l1.5.7c.3,0,.7,0,1,0l-1.5-.7ZM194.5,81.6c-.3,0-.7,0-1,0l1.6.7c.3,0,.7,0,1,0l-1.6-.8ZM167.8,80.4h-.2s.3,0,.3,0h.2s-.3,0-.3,0ZM169.1,80.4h-.5s.6,0,.6,0h.5s-.6,0-.6,0ZM170.5,80.5h-.6s.7.1.7.1h.6s-.7-.1-.7-.1ZM171.9,80.5c-.2,0-.5,0-.7,0l.9.2c.2,0,.5,0,.7,0l-.9-.2ZM173.2,80.6c-.3,0-.5,0-.8,0l1,.2c.3,0,.5,0,.8,0l-1-.2ZM174.5,80.6c-.3,0-.5,0-.8,0l1,.3c.3,0,.5,0,.8,0l-1-.3ZM175.9,80.6c-.3,0-.6,0-.9,0l1.1.3c.3,0,.6,0,.9,0l-.8-.2h-.3ZM177.2,80.7c-.3,0-.6,0-.9,0l1.2.3c.3,0,.6,0,.9,0h-.2c0,0-.9-.3-.9-.3ZM178.5,80.7c-.3,0-.6,0-.9,0l.5.2.7.2c.3,0,.6,0,.9,0l-1.2-.4ZM179.9,80.7c-.3,0-.6,0-.9,0l1.2.4h0c.3,0,.6,0,1,0l-1.3-.4ZM181.2,80.8c-.3,0-.6,0-1,0l1.3.4c.3,0,.6,0,1,0l-1.3-.5ZM182.5,80.8c-.3,0-.6,0-1,0l1.3.5c.3,0,.7,0,1,0l-1.3-.5ZM183.8,80.8c-.3,0-.7,0-1,0l1.4.5c.3,0,.7,0,1,0l-1.4-.5ZM185.1,80.8c-.3,0-.7,0-1,0l1.4.5c.3,0,.7,0,1,0l-1.4-.6ZM186.4,80.8c-.3,0-.7,0-1,0l1.4.6c.3,0,.7,0,1,0l-1.4-.6ZM187.6,80.8c-.3,0-.7,0-1,0l1.5.6c.3,0,.7,0,1,0l-1.5-.6ZM188.9,80.8c-.3,0-.7,0-1,0l1.5.6c.3,0,.7,0,1,0l-1.5-.7ZM190.2,80.8c-.3,0-.7,0-1,0l1.5.7c.3,0,.7,0,1,0l-1.5-.7ZM191.4,80.7c-.3,0-.7,0-1,0l1.5.7c.3,0,.7,0,1,0l-1.6-.7ZM192.7,80.7c-.3,0-.7,0-1,0l1.6.8c.3,0,.7,0,1,0l-1.6-.8ZM165,80.1h-.3s.3,0,.3,0h.2s-.3,0-.3,0ZM166.3,80.1h-.5s.6,0,.6,0h.5s-.6,0-.6,0ZM167.7,80.1h-.6s.7.1.7.1h.6s-.7-.1-.7-.1ZM169,80.2h-.7s.9.1.9.1c.2,0,.5,0,.7,0l-.9-.2ZM170.3,80.2c-.3,0-.5,0-.8,0l.9.2h.8s-1-.2-1-.2ZM171.7,80.2c-.3,0-.5,0-.8,0l1,.2c.3,0,.5,0,.8,0h-.5c0-.1-.5-.3-.5-.3ZM173,80.2c-.3,0-.6,0-.9,0h0s1,.3,1,.3c.3,0,.6,0,.9,0l-1.1-.3ZM174.3,80.2c-.3,0-.6,0-.9,0l.8.2h.4c.3.1.6.1.9.1l-1.2-.3ZM175.6,80.2c-.3,0-.6,0-.9,0l1.2.3c.3,0,.6,0,.9,0l-1.2-.4ZM176.9,80.2c-.3,0-.6,0-.9,0l1.2.4c.3,0,.6,0,.9,0l-1.2-.4ZM178.2,80.2c-.3,0-.6,0-1,0l1.3.4c.3,0,.6,0,1,0l-1.3-.4ZM179.5,80.2c-.3,0-.6,0-1,0l1.3.4c.3,0,.7,0,1,0l-1.3-.5ZM180.8,80.2c-.3,0-.7,0-1,0l1.4.5c.3,0,.7,0,1,0l-1.4-.5ZM182.1,80.1c-.3,0-.7,0-1,0l1.4.5c.3,0,.7,0,1,0l-1.4-.5ZM183.4,80.1c-.3,0-.7,0-1,0l1.4.6c.3,0,.7,0,1,0l-1.4-.6ZM184.6,80.1c-.3,0-.7,0-1,0l1.4.6c.3,0,.7,0,1,0l-1.5-.6ZM185.9,80c-.3,0-.7,0-1,0l1.5.6c.3,0,.7,0,1,0l-1.5-.6ZM187.2,80c-.3,0-.7,0-1,0l1.5.7c.3,0,.7,0,1,0l-1.5-.7ZM188.4,79.9c-.3,0-.7,0-1,0l1.5.7c.3,0,.7,0,1,0l-1.5-.7ZM189.7,79.9c-.3,0-.7,0-1,0l1.6.7c.3,0,.7,0,1,0l-1.6-.8ZM190.9,79.8c-.3,0-.7,0-1,0l1.6.8c.3,0,.7,0,1,0-.5-.3-1.1-.5-1.6-.8ZM162.2,79.9h-.3s.4,0,.4,0h.2s-.3,0-.3,0ZM163.5,79.9h-.5s.6,0,.6,0h.5s-.6,0-.6,0ZM164.8,79.9c-.2,0-.4,0-.6,0h.7c0,.1.6.1.6.1h-.7ZM166.2,79.9c-.2,0-.5,0-.7,0h.9c0,.1.7.1.7.1h-.8c0-.1,0-.2,0-.2ZM167.5,79.9c-.3,0-.5,0-.8,0l.9.2c.3,0,.5,0,.8,0h-.2s-.7-.2-.7-.2ZM168.8,79.8c-.3,0-.5,0-.8,0h.3c0,0,.8.2.8.2.3,0,.5,0,.8,0l-1-.2ZM170.1,79.8c-.3,0-.6,0-.9,0l1,.2h.1c.3,0,.6,0,.9,0l-1.1-.3ZM171.4,79.8c-.3,0-.6,0-.9,0l1.1.3c.3,0,.6,0,.9,0l-1.1-.3ZM172.7,79.8c-.3,0-.6,0-.9,0l1.2.3c.3,0,.6,0,.9,0l-1.2-.3ZM174,79.7c-.3,0-.6,0-.9,0l1.2.3c.3,0,.6,0,.9,0l-1.2-.4ZM175.3,79.7c-.3,0-.6,0-.9,0l1.3.4c.3,0,.6,0,1,0l-1.3-.4ZM176.6,79.6c-.3,0-.6,0-1,0l1.3.4c.3,0,.7,0,1,0l-1.3-.4ZM177.9,79.6c-.3,0-.6,0-1,0l1.3.5c.3,0,.7,0,1,0l-1.4-.5ZM179.1,79.5c-.3,0-.7,0-1,0l1.4.5c.3,0,.7,0,1,0l-1.4-.5ZM180.4,79.5c-.3,0-.7,0-1,0l1.4.5c.3,0,.7,0,1,0l-1.4-.6ZM181.7,79.4c-.3,0-.7,0-1,0l1.4.6c.3,0,.7,0,1,0l-1.5-.6ZM182.9,79.3c-.3,0-.7,0-1,0l1.5.6c.3,0,.7,0,1,0-.5-.2-1-.4-1.5-.6ZM184.2,79.3c-.3,0-.7,0-1,0l1.5.6c.3,0,.7,0,1,0l-1.5-.7ZM185.4,79.2c-.3,0-.7,0-1,0l1.5.7c.3,0,.7,0,1,0-.5-.2-1-.5-1.5-.7ZM186.6,79.1c-.3,0-.7,0-1,0l1.5.7c.3,0,.7,0,1,0l-1.6-.7ZM187.9,79c-.3,0-.7,0-1,0,.5.2,1,.5,1.6.7.3,0,.7,0,1,0-.5-.3-1.1-.5-1.6-.8ZM189.1,78.9c-.3,0-.7,0-1,0,.5.3,1.1.5,1.6.8.3,0,.7,0,1,0-.5-.3-1.1-.5-1.6-.8ZM159.4,79.8h-.3s.4,0,.4,0h.3s-.3,0-.3,0ZM160.7,79.7h-.5s.6,0,.6,0h.5s-.6,0-.6,0ZM162,79.7h-.6s.7.1.7.1h.6s-.5,0-.5,0h-.2ZM163.4,79.6c-.2,0-.5,0-.7,0h.8c.2.1.5.1.7.1h-.8ZM164.7,79.6c-.3,0-.5,0-.8,0h.4c0,0,.6.2.6.2.3,0,.5,0,.8,0l-.9-.2ZM166,79.5c-.3,0-.5,0-.8,0l1,.2c.3,0,.5,0,.8,0l-1-.2ZM167.3,79.5c-.3,0-.6,0-.8,0l1.1.2c.3,0,.6,0,.9,0l-1.1-.2ZM168.6,79.4c-.3,0-.6,0-.9,0l1.1.3c.3,0,.6,0,.9,0l-1.1-.3ZM169.8,79.4c-.3,0-.6,0-.9,0l1.2.3c.3,0,.6,0,.9,0l-1.2-.3ZM171.1,79.3c-.3,0-.6,0-.9,0l1.2.3c.3,0,.6,0,.9,0l-1.2-.3ZM172.4,79.2c-.3,0-.6,0-.9,0l1.3.4c.3,0,.6,0,1,0l-1.3-.4ZM173.7,79.2c-.3,0-.6,0-1,0l1.3.4c.3,0,.6,0,1,0l-1.3-.4ZM174.9,79.1c-.3,0-.6,0-1,0l1.3.4c.3,0,.7,0,1,0l-1.3-.5ZM176.2,79c-.3,0-.7,0-1,0l1.4.5c.3,0,.7,0,1,0l-1.4-.5ZM177.5,78.9c-.3,0-.7,0-1,0l1.4.5c.3,0,.7,0,1,0l-1.4-.5ZM178.7,78.8c-.3,0-.7,0-1,0l1.4.5c.3,0,.7,0,1,0l-1.4-.6ZM180,78.7c-.3,0-.7,0-1,0l1.5.6c.3,0,.7,0,1,0l-1.5-.6ZM181.2,78.6c-.3,0-.7,0-1,0l1.5.6c.3,0,.7,0,1,0-.5-.2-1-.4-1.5-.6ZM182.4,78.5c-.3,0-.7,0-1,0,.5.2,1,.4,1.5.6.3,0,.7,0,1,0-.5-.2-1-.4-1.5-.7ZM183.6,78.4c-.3,0-.7,0-1,0,.5.2,1,.4,1.5.7.3,0,.7,0,1,0l-1.5-.7ZM184.9,78.3c-.3,0-.7,0-1,.1.5.2,1,.5,1.6.7.3,0,.7,0,1,0-.5-.2-1-.5-1.6-.7ZM186.1,78.1c-.3,0-.7,0-1,.1.5.2,1.1.5,1.6.7.3,0,.7,0,1,0-.5-.3-1.1-.5-1.6-.8ZM187.3,78c-.3,0-.7,0-1,.1.5.3,1.1.5,1.6.8.3,0,.7,0,1,0-.5-.3-1.1-.5-1.6-.8ZM156.7,79.7h-.3s.4,0,.4,0h.3s-.4,0-.4,0ZM158,79.6h-.5s.6,0,.6,0h.5s-.2,0-.2,0h-.4ZM159.3,79.6h-.6s.7.1.7.1h.6s-.7-.1-.7-.1ZM160.6,79.5c-.2,0-.5,0-.7,0h.4c0,0,.4,0,.4,0h.7s-.8-.1-.8-.1ZM161.9,79.4h-.8s.9.2.9.2h.8s-.9-.2-.9-.2ZM163.2,79.3c-.3,0-.5,0-.8,0l1,.2c.3,0,.5,0,.8,0l-1-.2ZM164.5,79.2c-.3,0-.6,0-.8,0l1.1.2c.3,0,.6,0,.9,0l-1.1-.2ZM165.7,79.1c-.3,0-.6,0-.9,0l1.1.2c.3,0,.6,0,.9,0l-1.1-.3ZM167,79.1c-.3,0-.6,0-.9,0l1.2.3c.3,0,.6,0,.9,0-.4,0-.8-.2-1.2-.3ZM168.3,79c-.3,0-.6,0-.9,0l1.2.3c.3,0,.6,0,.9,0l-1.2-.3ZM169.5,78.9c-.3,0-.6,0-.9,0l1.3.3c.3,0,.6,0,.9,0l-1.3-.4ZM170.8,78.8c-.3,0-.6,0-1,0l1.3.4c.3,0,.6,0,1,0l-1.3-.4ZM172.1,78.6c-.3,0-.6,0-1,0l1.3.4c.3,0,.7,0,1,0l-1.3-.4ZM173.3,78.5c-.3,0-.6,0-1,0l1.4.4c.3,0,.7,0,1,0l-1.4-.5ZM174.5,78.4c-.3,0-.7,0-1,0l1.4.5c.3,0,.7,0,1,0l-1.4-.5ZM175.8,78.3c-.3,0-.7,0-1,0l1.4.5c.3,0,.7,0,1,0-.5-.2-1-.4-1.4-.5ZM177,78.2c-.3,0-.7,0-1,.1l1.4.5c.3,0,.7,0,1,0-.5-.2-1-.4-1.5-.6ZM178.2,78c-.3,0-.7,0-1,.1.5.2,1,.4,1.5.6.3,0,.7,0,1,0l-1.5-.6ZM179.5,77.9c-.3,0-.7,0-1,.1.5.2,1,.4,1.5.6.3,0,.7,0,1,0-.5-.2-1-.4-1.5-.6ZM180.7,77.8c-.3,0-.7,0-1,.1.5.2,1,.4,1.5.6.3,0,.7,0,1,0-.5-.2-1-.4-1.5-.7ZM181.9,77.6c-.3,0-.7,0-1,.1.5.2,1,.4,1.6.7.3,0,.7,0,1,0-.5-.2-1-.5-1.6-.7ZM183.1,77.5c-.3,0-.7,0-1,.1.5.2,1.1.5,1.6.7.3,0,.7,0,1-.1-.5-.2-1.1-.5-1.6-.7ZM184.3,77.3c-.3,0-.7,0-1,.1.5.2,1.1.5,1.6.7.3,0,.7,0,1-.1-.5-.3-1.1-.5-1.6-.8ZM185.5,77.1c-.3,0-.7,0-1,.1.5.3,1.1.5,1.6.8.3,0,.7,0,1-.1-.5-.3-1.1-.5-1.6-.8ZM154,79.7h-.3s.4,0,.4,0h.3s-.4,0-.4,0ZM155.3,79.6h-.5s.6,0,.6,0h.5s-.6,0-.6,0ZM156.6,79.5h-.6c0,0,.4,0,.4,0h.3s.6,0,.6,0h-.7ZM157.8,79.4h-.7c0,0,.8.1.8.1h.7s-.8-.1-.8-.1ZM159.1,79.3c-.2,0-.5,0-.8,0h.9c.3,0,.5,0,.8,0h-.9ZM160.4,79.2c-.3,0-.5,0-.8,0h1c.3.1.5.1.8,0l-1-.2ZM161.7,79c-.3,0-.6,0-.8,0l1.1.2c.3,0,.6,0,.8,0l-1.1-.2ZM162.9,78.9c-.3,0-.6,0-.9,0l1.1.2c.3,0,.6,0,.9,0l-1.1-.2ZM164.2,78.8c-.3,0-.6,0-.9,0,.4,0,.8.2,1.2.2.3,0,.6,0,.9,0l-1.2-.3ZM165.4,78.7c-.3,0-.6,0-.9,0l1.2.3c.3,0,.6,0,.9,0l-1.2-.3ZM166.7,78.5c-.3,0-.6,0-.9,0l1.2.3c.3,0,.6,0,.9,0-.4-.1-.8-.2-1.3-.3ZM168,78.4c-.3,0-.6,0-.9.1.4.1.9.2,1.3.3.3,0,.6,0,1,0l-1.3-.4ZM169.2,78.3c-.3,0-.6,0-1,.1l1.3.4c.3,0,.6,0,1,0l-1.3-.4ZM170.4,78.1c-.3,0-.6,0-1,.1.4.1.9.3,1.3.4.3,0,.7,0,1,0l-1.4-.4ZM171.7,78c-.3,0-.6,0-1,.1l1.4.4c.3,0,.7,0,1,0l-1.4-.5ZM172.9,77.8c-.3,0-.7,0-1,.1.5.2.9.3,1.4.5.3,0,.7,0,1,0-.5-.2-.9-.3-1.4-.5ZM174.1,77.7c-.3,0-.7,0-1,.1.5.2,1,.3,1.4.5.3,0,.7,0,1,0-.5-.2-1-.4-1.4-.5ZM175.3,77.5c-.3,0-.7,0-1,.1.5.2,1,.4,1.5.5.3,0,.7,0,1-.1-.5-.2-1-.4-1.5-.6ZM176.5,77.4c-.3,0-.7,0-1,.1.5.2,1,.4,1.5.6.3,0,.7,0,1-.1-.5-.2-1-.4-1.5-.6ZM177.7,77.2c-.3,0-.7,0-1,.1.5.2,1,.4,1.5.6.3,0,.7,0,1-.1-.5-.2-1-.4-1.5-.6ZM178.9,77c-.3,0-.7,0-1,.1.5.2,1,.4,1.5.6.3,0,.7,0,1-.1-.5-.2-1-.4-1.6-.7ZM180.1,76.8c-.3,0-.7.1-1,.2.5.2,1,.5,1.6.7.3,0,.7,0,1-.1-.5-.2-1.1-.5-1.6-.7ZM181.3,76.6c-.3,0-.7.1-1,.2.5.2,1.1.5,1.6.7.3,0,.7,0,1-.1-.5-.2-1.1-.5-1.6-.7ZM182.5,76.4c-.3,0-.7.1-1,.2.5.2,1.1.5,1.6.7.3,0,.7,0,1-.1-.5-.3-1.1-.5-1.6-.8ZM183.6,76.2c-.3,0-.7.1-1,.2.5.3,1.1.5,1.6.8.3,0,.7,0,1-.1-.5-.3-1.1-.5-1.6-.8ZM151.3,79.8h-.3s.4,0,.4,0h.3s-.4,0-.4,0ZM152.6,79.6h-.5c0,0,.4,0,.4,0h.2s.5,0,.5,0h-.6ZM153.8,79.5h-.6c0,0,.7.1.7.1h.6s-.7-.1-.7-.1ZM155.1,79.4h-.7c0,0,.8.1.8.1h.7c0,0-.8-.1-.8-.1ZM156.4,79.2c-.2,0-.5,0-.7,0h.9c.3,0,.5,0,.8,0h-.9ZM157.6,79.1c-.3,0-.5,0-.8,0h1c.3,0,.5,0,.8,0h-1ZM158.9,78.9c-.3,0-.6,0-.8,0h1.1c.3.1.6,0,.8,0l-1.1-.2ZM160.2,78.8c-.3,0-.6,0-.9.1l1.1.2c.3,0,.6,0,.9,0l-1.1-.2ZM161.4,78.6c-.3,0-.6,0-.9.1l1.2.2c.3,0,.6,0,.9,0l-1.2-.2ZM162.7,78.5c-.3,0-.6,0-.9.1l1.2.2c.3,0,.6,0,.9,0-.4,0-.8-.2-1.2-.3ZM163.9,78.3c-.3,0-.6,0-.9.1.4,0,.8.2,1.2.3.3,0,.6,0,.9,0-.4-.1-.8-.2-1.2-.3ZM165.1,78.1c-.3,0-.6,0-.9.1.4.1.8.2,1.3.3.3,0,.6,0,1,0-.4-.1-.9-.2-1.3-.3ZM166.4,78c-.3,0-.6,0-1,.1l1.3.3c.3,0,.6,0,1-.1l-1.3-.4ZM167.6,77.8c-.3,0-.6,0-1,.1l1.3.4c.3,0,.6,0,1-.1l-1.3-.4ZM168.8,77.6c-.3,0-.6,0-1,.1l1.4.4c.3,0,.7,0,1-.1l-1.4-.4ZM170,77.4c-.3,0-.6,0-1,.1.5.1.9.3,1.4.4.3,0,.7,0,1-.1-.5-.2-.9-.3-1.4-.5ZM171.2,77.2c-.3,0-.6.1-1,.1.5.2.9.3,1.4.5.3,0,.7,0,1-.1-.5-.2-1-.3-1.4-.5ZM172.4,77.1c-.3,0-.7.1-1,.2.5.2,1,.3,1.5.5.3,0,.7,0,1-.1-.5-.2-1-.4-1.5-.5ZM173.6,76.9c-.3,0-.7.1-1,.2.5.2,1,.4,1.5.5.3,0,.7,0,1-.1-.5-.2-1-.4-1.5-.6ZM174.8,76.7c-.3,0-.7.1-1,.2.5.2,1,.4,1.5.6.3,0,.7,0,1-.1-.5-.2-1-.4-1.5-.6ZM176,76.5c-.3,0-.7.1-1,.2.5.2,1,.4,1.5.6.3,0,.7,0,1-.1-.5-.2-1-.4-1.5-.6ZM177.2,76.2c-.3,0-.7.1-1,.2.5.2,1,.4,1.6.6.3,0,.7,0,1-.1-.5-.2-1-.5-1.6-.7ZM178.3,76c-.3,0-.7.1-1,.2.5.2,1.1.5,1.6.7.3,0,.7-.1,1-.2-.5-.2-1.1-.5-1.6-.7ZM179.5,75.8c-.3,0-.7.1-1,.2.5.2,1.1.5,1.6.7.3,0,.7-.1,1-.2-.5-.2-1.1-.5-1.6-.7ZM180.7,75.6c-.3,0-.7.1-1,.2.5.2,1.1.5,1.6.7.3,0,.7-.1,1-.2-.5-.3-1.1-.5-1.6-.8ZM181.8,75.3c-.3,0-.7.1-1,.2.5.3,1.1.5,1.6.8.3,0,.7-.1,1-.2-.6-.3-1.1-.5-1.7-.8ZM148.7,79.9h-.3s.2,0,.2,0h.2s.3,0,.3,0h-.4ZM149.9,79.8h-.5c0,0,.6,0,.6,0h.5c0,0-.6,0-.6,0ZM151.2,79.6h-.6c0,0,.7.1.7.1h.6c0,0-.7-.1-.7-.1ZM152.4,79.4h-.7c0,0,.8.1.8.1h.7c0,0-.8-.1-.8-.1ZM153.7,79.2c-.2,0-.5,0-.7.1h.9c0,0,.8,0,.8,0h-.9ZM154.9,79c-.3,0-.5,0-.8.1h1c.3,0,.5,0,.8,0h-1ZM156.2,78.9c-.3,0-.6,0-.8.1h1c.3,0,.6,0,.8,0h-1.1ZM157.4,78.7c-.3,0-.6,0-.9.1l1.1.2c.3,0,.6,0,.9-.1-.4,0-.7-.1-1.1-.2ZM158.6,78.5c-.3,0-.6,0-.9.1.4,0,.8.1,1.1.2.3,0,.6,0,.9-.1-.4,0-.8-.1-1.2-.2ZM159.9,78.3c-.3,0-.6,0-.9.1.4,0,.8.1,1.2.2.3,0,.6,0,.9-.1l-1.2-.2ZM161.1,78.1c-.3,0-.6,0-.9.1.4,0,.8.2,1.2.2.3,0,.6,0,.9-.1-.4,0-.8-.2-1.2-.3ZM162.3,77.9c-.3,0-.6,0-.9.1.4,0,.8.2,1.3.3.3,0,.6,0,.9-.1-.4-.1-.8-.2-1.3-.3ZM163.5,77.7c-.3,0-.6.1-.9.2.4.1.9.2,1.3.3.3,0,.6,0,1-.1-.4-.1-.9-.2-1.3-.3ZM164.8,77.5c-.3,0-.6.1-1,.2.4.1.9.2,1.3.3.3,0,.6,0,1-.1-.4-.1-.9-.2-1.3-.4ZM166,77.3c-.3,0-.6.1-1,.2.5.1.9.3,1.4.4.3,0,.6,0,1-.1-.5-.1-.9-.3-1.4-.4ZM167.2,77.1c-.3,0-.6.1-1,.2.5.1.9.3,1.4.4.3,0,.7,0,1-.1-.5-.1-.9-.3-1.4-.4ZM168.4,76.9c-.3,0-.6.1-1,.2.5.1.9.3,1.4.4.3,0,.7,0,1-.1-.5-.2-.9-.3-1.4-.5ZM169.6,76.7c-.3,0-.6.1-1,.2.5.2,1,.3,1.4.5.3,0,.7,0,1-.2-.5-.2-1-.3-1.5-.5ZM170.7,76.4c-.3,0-.6.1-1,.2.5.2,1,.3,1.5.5.3,0,.7-.1,1-.2-.5-.2-1-.4-1.5-.5ZM171.9,76.2c-.3,0-.6.1-1,.2.5.2,1,.4,1.5.5.3,0,.7-.1,1-.2-.5-.2-1-.4-1.5-.6ZM173.1,76c-.3,0-.6.1-1,.2.5.2,1,.4,1.5.6.3,0,.7-.1,1-.2-.5-.2-1-.4-1.5-.6ZM174.3,75.7c-.3,0-.6.1-1,.2.5.2,1,.4,1.5.6.3,0,.7-.1,1-.2-.5-.2-1-.4-1.6-.6ZM175.4,75.5c-.3,0-.6.1-1,.2.5.2,1,.4,1.6.6.3,0,.7-.1,1-.2-.5-.2-1.1-.5-1.6-.7ZM176.6,75.2c-.3,0-.6.1-1,.2.5.2,1.1.5,1.6.7.3,0,.7-.1,1-.2-.5-.2-1.1-.5-1.6-.7ZM177.7,75c-.3,0-.6.1-1,.2.5.2,1.1.5,1.6.7.3,0,.7-.1,1-.2-.5-.2-1.1-.5-1.6-.7ZM178.9,74.7c-.3,0-.6.2-1,.2.5.3,1.1.5,1.6.8.3,0,.7-.1,1-.2-.5-.3-1.1-.5-1.6-.8ZM180,74.4c-.3,0-.6.2-1,.2.6.3,1.1.5,1.7.8.3,0,.7-.1,1-.2-.6-.3-1.1-.5-1.7-.8ZM146,80.1h-.3s.4,0,.4,0h.3s-.4,0-.4,0ZM147.3,79.9h-.5c0,0,.6,0,.6,0h.5c0,0-.6,0-.6,0ZM148.5,79.7h-.6c0,0,.7,0,.7,0h.6c0,0-.7,0-.7,0ZM149.8,79.5h-.7c0,.1.8.1.8.1h.7c0,0-.8-.1-.8-.1ZM151,79.3h-.7c0,.1.9.2.9.2h.7c0-.1-.9-.2-.9-.2ZM152.2,79.1c-.3,0-.5,0-.8.1h1c.3,0,.5,0,.8,0h-1ZM153.5,78.9c-.3,0-.5,0-.8.1h1c.3,0,.6,0,.8,0-.3,0-.7,0-1-.1ZM154.7,78.7c-.3,0-.6.1-.9.2h1.1c.3,0,.6,0,.9,0-.4,0-.7-.1-1.1-.2ZM155.9,78.4c-.3,0-.6.1-.9.2.4,0,.8.1,1.1.2.3,0,.6,0,.9-.1-.4,0-.8-.1-1.1-.2ZM157.1,78.2c-.3,0-.6.1-.9.2l1.2.2c.3,0,.6,0,.9-.1-.4,0-.8-.1-1.2-.2ZM158.3,78c-.3,0-.6.1-.9.2.4,0,.8.1,1.2.2.3,0,.6,0,.9-.1-.4,0-.8-.2-1.2-.2ZM159.6,77.8c-.3,0-.6.1-.9.2.4,0,.8.2,1.2.3.3,0,.6,0,.9-.1-.4,0-.8-.2-1.3-.3ZM160.8,77.5c-.3,0-.6.1-.9.2l1.3.3c.3,0,.6-.1.9-.2-.4-.1-.9-.2-1.3-.3ZM162,77.3c-.3,0-.6.1-.9.2.4.1.9.2,1.3.3.3,0,.6-.1,1-.2-.4-.1-.9-.2-1.3-.3ZM163.2,77.1c-.3,0-.6.1-1,.2.4.1.9.2,1.3.3.3,0,.6-.1,1-.2-.5-.1-.9-.3-1.4-.4ZM164.3,76.8c-.3,0-.6.1-1,.2.5.1.9.3,1.4.4.3,0,.6-.1,1-.2-.5-.1-.9-.3-1.4-.4ZM165.5,76.6c-.3,0-.6.1-1,.2.5.1.9.3,1.4.4.3,0,.6-.1,1-.2-.5-.1-.9-.3-1.4-.4ZM166.7,76.3c-.3,0-.6.1-1,.2.5.1,1,.3,1.4.4.3,0,.7-.1,1-.2-.5-.2-1-.3-1.4-.5ZM167.9,76.1c-.3,0-.6.1-1,.2.5.2,1,.3,1.5.5.3,0,.7-.1,1-.2-.5-.2-1-.3-1.5-.5ZM169,75.8c-.3,0-.6.1-1,.2.5.2,1,.3,1.5.5.3,0,.7-.1,1-.2-.5-.2-1-.4-1.5-.5ZM170.2,75.6c-.3,0-.6.1-1,.2.5.2,1,.4,1.5.5.3,0,.7-.1,1-.2-.5-.2-1-.4-1.5-.6ZM171.4,75.3c-.3,0-.6.2-1,.2.5.2,1,.4,1.5.6.3,0,.7-.1,1-.2-.5-.2-1-.4-1.5-.6ZM172.5,75c-.3,0-.6.2-1,.2.5.2,1,.4,1.5.6.3,0,.7-.1,1-.2-.5-.2-1-.4-1.6-.6ZM173.7,74.7c-.3,0-.6.2-1,.2.5.2,1,.4,1.6.7.3,0,.7-.1,1-.2-.5-.2-1.1-.5-1.6-.7ZM174.8,74.4c-.3,0-.6.2-1,.2.5.2,1.1.5,1.6.7.3,0,.7-.1,1-.2-.5-.2-1.1-.5-1.6-.7ZM175.9,74.2c-.3,0-.6.2-1,.3.5.2,1.1.5,1.6.7.3,0,.7-.1,1-.2-.5-.2-1.1-.5-1.6-.7ZM177.1,73.9c-.3,0-.6.2-1,.3.5.3,1.1.5,1.6.8.3,0,.7-.2,1-.2-.6-.3-1.1-.5-1.7-.8ZM178.2,73.5c-.3,0-.6.2-1,.3.6.3,1.1.5,1.7.8.3,0,.6-.2,1-.2-.6-.3-1.1-.5-1.7-.8ZM143.4,80.4h-.3c0,0,.4,0,.4,0h.3s-.4,0-.4,0ZM144.7,80.2h-.5c0,0,.6,0,.6,0h.5c0,0-.6,0-.6,0ZM145.9,79.9h-.6c0,.1.7,0,.7,0h.6c0,0-.7,0-.7,0ZM147.1,79.7h-.7c0,.1.8.1.8.1h.7c0-.1-.8-.1-.8-.1ZM148.4,79.4h-.7c0,.1.9.2.9.2h.7c0-.1-.9-.2-.9-.2ZM149.6,79.2c-.3,0-.5.1-.8.2h1c.3,0,.5,0,.8,0-.3,0-.6,0-1,0ZM150.8,79c-.3,0-.5.1-.8.2.3,0,.7,0,1,0h.8c-.3-.2-.7-.2-1-.2ZM152,78.7c-.3,0-.6.1-.8.2.4,0,.7,0,1.1.1.3,0,.6,0,.9-.1-.4,0-.7,0-1.1-.1ZM153.2,78.5c-.3,0-.6.1-.9.2h1.1c.3,0,.6,0,.9,0-.4,0-.8-.1-1.1-.2ZM154.4,78.2c-.3,0-.6.1-.9.2.4,0,.8.1,1.2.2.3,0,.6-.1.9-.2l-1.2-.2ZM155.6,77.9c-.3,0-.6.1-.9.2.4,0,.8.1,1.2.2.3,0,.6-.1.9-.2-.4,0-.8-.1-1.2-.2ZM156.8,77.7c-.3,0-.6.1-.9.2.4,0,.8.1,1.2.2.3,0,.6-.1.9-.2-.4,0-.8-.2-1.2-.3ZM158,77.4c-.3,0-.6.1-.9.2.4,0,.8.2,1.3.3.3,0,.6-.1.9-.2-.4,0-.9-.2-1.3-.3ZM159.2,77.2c-.3,0-.6.1-.9.2.4,0,.9.2,1.3.3.3,0,.6-.1.9-.2-.4-.1-.9-.2-1.3-.3ZM160.4,76.9c-.3,0-.6.1-.9.2.4.1.9.2,1.3.3.3,0,.6-.1,1-.2-.4-.1-.9-.2-1.3-.3ZM161.6,76.6c-.3,0-.6.1-1,.2.5.1.9.2,1.4.4.3,0,.6-.1,1-.2-.5-.1-.9-.3-1.4-.4ZM162.7,76.3c-.3,0-.6.1-1,.2.5.1.9.3,1.4.4.3,0,.6-.1,1-.2-.5-.1-.9-.3-1.4-.4ZM163.9,76.1c-.3,0-.6.2-1,.2.5.1.9.3,1.4.4.3,0,.6-.1,1-.2-.5-.1-1-.3-1.4-.4ZM165.1,75.8c-.3,0-.6.2-1,.2.5.2,1,.3,1.4.5.3,0,.6-.1,1-.2-.5-.2-1-.3-1.5-.5ZM166.2,75.5c-.3,0-.6.2-1,.2.5.2,1,.3,1.5.5.3,0,.6-.1,1-.2-.5-.2-1-.3-1.5-.5ZM167.4,75.2c-.3,0-.6.2-1,.2.5.2,1,.3,1.5.5.3,0,.7-.1,1-.2-.5-.2-1-.4-1.5-.5ZM168.5,74.9c-.3,0-.6.2-1,.3.5.2,1,.4,1.5.6.3,0,.7-.1,1-.2-.5-.2-1-.4-1.5-.6ZM169.6,74.6c-.3,0-.6.2-1,.3.5.2,1,.4,1.5.6.3,0,.7-.2,1-.2-.5-.2-1-.4-1.6-.6ZM170.8,74.3c-.3,0-.6.2-1,.3.5.2,1,.4,1.6.6.3,0,.7-.2,1-.2-.5-.2-1-.4-1.6-.6ZM171.9,74c-.3,0-.6.2-1,.3.5.2,1.1.4,1.6.7.3,0,.6-.2,1-.2-.5-.2-1.1-.5-1.6-.7ZM173,73.7c-.3,0-.6.2-1,.3.5.2,1.1.5,1.6.7.3,0,.6-.2,1-.2-.5-.2-1.1-.5-1.6-.7ZM174.1,73.3c-.3,0-.6.2-1,.3.5.2,1.1.5,1.6.7.3,0,.6-.2,1-.3-.5-.3-1.1-.5-1.6-.8ZM175.2,73c-.3,0-.6.2-1,.3.6.3,1.1.5,1.6.8.3,0,.6-.2,1-.3-.6-.3-1.1-.5-1.7-.8ZM176.3,72.7c-.3,0-.6.2-.9.3.6.3,1.1.5,1.7.8.3,0,.6-.2,1-.3-.6-.3-1.1-.5-1.7-.8ZM139.7,81h0s0,0,0,0h0ZM140.9,80.8h-.3c0,0,.4,0,.4,0h.3c0,0-.4,0-.4,0ZM142.1,80.5h-.5c0,.1.6,0,.6,0h.5c0,0-.6,0-.6,0ZM143.3,80.2h-.6c0,.1.7,0,.7,0h.6c0-.1-.7,0-.7,0ZM144.5,79.9l-.7.2h.8s.7-.2.7-.2h-.8ZM145.7,79.7l-.7.2h.9s.7-.1.7-.1c-.3,0-.6,0-.9,0ZM146.9,79.4l-.8.2h1s.8-.1.8-.1h-1ZM148.1,79.1c-.3,0-.5.1-.8.2.3,0,.7,0,1,0,.3,0,.5-.1.8-.2-.3,0-.7,0-1,0ZM149.3,78.8c-.3,0-.6.1-.8.2h1.1c.3,0,.6,0,.8,0-.4,0-.7,0-1.1-.1ZM150.5,78.5c-.3,0-.6.1-.9.2.4,0,.7,0,1.1.1.3,0,.6-.1.9-.2h-1.1ZM151.7,78.2c-.3,0-.6.1-.9.2.4,0,.8,0,1.2.1.3,0,.6-.1.9-.2-.4,0-.8-.1-1.2-.2ZM152.9,78c-.3,0-.6.1-.9.2.4,0,.8.1,1.2.2.3,0,.6-.1.9-.2-.4,0-.8-.1-1.2-.2ZM154.1,77.7c-.3,0-.6.1-.9.2.4,0,.8.1,1.2.2.3,0,.6-.1.9-.2-.4,0-.8-.1-1.2-.2ZM155.3,77.4c-.3,0-.6.2-.9.2.4,0,.8.2,1.3.2.3,0,.6-.1.9-.2-.4,0-.8-.2-1.3-.3ZM156.5,77.1c-.3,0-.6.2-.9.2.4,0,.9.2,1.3.3.3,0,.6-.1.9-.2-.4,0-.9-.2-1.3-.3ZM157.6,76.8c-.3,0-.6.2-.9.2.4,0,.9.2,1.3.3.3,0,.6-.1.9-.2-.4-.1-.9-.2-1.3-.3ZM158.8,76.5c-.3,0-.6.2-.9.2.4.1.9.2,1.3.3.3,0,.6-.1,1-.2-.5-.1-.9-.2-1.4-.4ZM159.9,76.2c-.3,0-.6.2-.9.2.5.1.9.2,1.4.4.3,0,.6-.1,1-.2-.5-.1-.9-.3-1.4-.4ZM161.1,75.9c-.3,0-.6.2-.9.3.5.1.9.3,1.4.4.3,0,.6-.1,1-.2-.5-.1-.9-.3-1.4-.4ZM162.2,75.6c-.3,0-.6.2-1,.3.5.1,1,.3,1.4.4.3,0,.6-.2,1-.2-.5-.2-1-.3-1.4-.5ZM163.4,75.2c-.3,0-.6.2-1,.3.5.2,1,.3,1.5.5.3,0,.6-.2,1-.2-.5-.2-1-.3-1.5-.5ZM164.5,74.9c-.3,0-.6.2-1,.3.5.2,1,.3,1.5.5.3,0,.6-.2,1-.2-.5-.2-1-.3-1.5-.5ZM165.7,74.6c-.3,0-.6.2-1,.3.5.2,1,.3,1.5.5.3,0,.6-.2,1-.2-.5-.2-1-.4-1.5-.6ZM166.8,74.3c-.3,0-.6.2-1,.3.5.2,1,.4,1.5.6.3,0,.6-.2,1-.3-.5-.2-1-.4-1.5-.6ZM167.9,73.9c-.3,0-.6.2-1,.3.5.2,1,.4,1.5.6.3,0,.6-.2,1-.3-.5-.2-1-.4-1.6-.6ZM169,73.6c-.3,0-.6.2-1,.3.5.2,1,.4,1.6.6.3,0,.6-.2,1-.3-.5-.2-1.1-.4-1.6-.7ZM170.1,73.2c-.3.1-.6.2-.9.3.5.2,1.1.4,1.6.7.3,0,.6-.2,1-.3-.5-.2-1.1-.5-1.6-.7ZM171.2,72.9c-.3.1-.6.2-.9.3.5.2,1.1.5,1.6.7.3,0,.6-.2,1-.3-.5-.2-1.1-.5-1.6-.7ZM172.3,72.5c-.3.1-.6.2-.9.3.5.2,1.1.5,1.6.7.3,0,.6-.2,1-.3-.5-.3-1.1-.5-1.6-.8ZM173.4,72.1c-.3.1-.6.2-.9.3.6.3,1.1.5,1.7.8.3,0,.6-.2,1-.3-.6-.3-1.1-.5-1.7-.8ZM174.5,71.8c-.3.1-.6.2-.9.3.6.3,1.1.5,1.7.8.3,0,.6-.2,1-.3-.6-.3-1.1-.5-1.7-.8ZM206.3,87l-1.5-.8c-.3,0-.7,0-1-.1l1.5.7c.3,0,.7.1,1,.2ZM208,87.9l-1.5-.8c-.3,0-.7,0-1-.1l1.5.7c.3,0,.7.1,1,.2ZM209.8,88.8l-1.4-.7c-.3,0-.7-.1-1-.2l1.4.7c.3,0,.7.1,1,.2ZM211.5,89.6l-1.4-.7c-.3,0-.7-.1-1-.2l1.4.7c.3,0,.7.1,1,.2ZM213.3,90.5l-1.4-.7c-.3,0-.7-.1-1-.2l1.4.7c.3,0,.7.2,1,.2ZM215,91.4c-.4-.2-.9-.5-1.3-.7-.3,0-.7-.2-1-.2.4.2.9.4,1.3.7.3,0,.7.2,1,.3ZM216.7,92.3l-1.3-.7c-.3,0-.6-.2-1-.2.4.2.8.4,1.3.6.3,0,.6.2,1,.3ZM218.4,93.1c-.4-.2-.8-.4-1.2-.6-.3,0-.6-.2-.9-.3l1.2.6c.3,0,.6.2.9.3ZM220.1,94c-.4-.2-.8-.4-1.2-.6-.3,0-.6-.2-.9-.3.4.2.8.4,1.2.6.3,0,.6.2.9.3ZM221.7,94.8c-.4-.2-.7-.4-1.1-.5-.3,0-.5-.2-.8-.3.4.2.7.4,1.1.5.3,0,.6.2.8.3ZM223.4,95.7c-.3-.2-.7-.3-1-.5-.3,0-.5-.2-.8-.3.3.2.7.3,1,.5.3,0,.5.2.8.3ZM225,96.5c-.3-.1-.6-.3-.9-.4-.2,0-.4-.2-.7-.2.3.1.6.3.9.4.2,0,.4.2.7.2ZM226.5,97.3l-.7-.4c-.2,0-.3-.1-.5-.2l.7.3.5.2ZM228,98l-.5-.2h-.3c0-.1.5.1.5.1h.3ZM229.4,98.7h-.2c0,0,0,0,0,0h.2c0,0,0,0,0,0ZM177.3,72.2c-.6-.3-1.1-.6-1.7-.9-.3.1-.6.2-.9.3.6.3,1.1.5,1.7.8.3,0,.6-.2.9-.3ZM179.1,73.2c-.6-.3-1.1-.6-1.7-.9-.3.1-.6.2-.9.3.6.3,1.1.5,1.7.8.3,0,.6-.2,1-.3ZM181,74.1c-.6-.3-1.1-.6-1.7-.9-.3,0-.6.2-1,.3.6.3,1.1.5,1.7.8.3,0,.6-.2,1-.2ZM182.8,75c-.6-.3-1.1-.6-1.7-.8-.3,0-.6.2-1,.2.6.3,1.1.5,1.7.8.3,0,.7-.1,1-.2ZM184.6,75.9c-.6-.3-1.1-.6-1.7-.8-.3,0-.6.1-1,.2.6.3,1.1.5,1.7.8.3,0,.7-.1,1-.2ZM186.5,76.9c-.6-.3-1.1-.6-1.7-.8-.3,0-.7.1-1,.2.6.3,1.1.5,1.7.8.3,0,.7,0,1-.2ZM188.3,77.8c-.6-.3-1.1-.6-1.7-.8-.3,0-.7.1-1,.2.5.3,1.1.5,1.6.8.3,0,.7,0,1-.1ZM190.1,78.7c-.5-.3-1.1-.6-1.6-.8-.3,0-.7,0-1,.1.5.3,1.1.5,1.6.8.3,0,.7,0,1,0ZM191.9,79.6c-.5-.3-1.1-.6-1.6-.8-.3,0-.7,0-1,0,.5.3,1.1.5,1.6.8.3,0,.7,0,1,0ZM193.7,80.6c-.5-.3-1.1-.6-1.6-.8-.3,0-.7,0-1,0l1.6.8c.3,0,.7,0,1,0ZM195.5,81.5c-.5-.3-1.1-.5-1.6-.8-.3,0-.7,0-1,0l1.6.8c.3,0,.7,0,1,0ZM197.3,82.4l-1.6-.8c-.3,0-.7,0-1,0l1.6.8c.3,0,.7,0,1,0ZM199.1,83.3l-1.6-.8c-.3,0-.7,0-1,0l1.6.8c.3,0,.7,0,1,0ZM200.9,84.2l-1.6-.8c-.3,0-.7,0-1,0l1.5.8c.3,0,.7,0,1,0ZM202.7,85.1l-1.5-.8c-.3,0-.7,0-1,0l1.5.8c.3,0,.7,0,1,.1ZM204.1,85.8l-1.1-.6c-.3,0-.7,0-1,0h.2c0,0,1.3.7,1.3.7.3,0,.7,0,1,.1l-.4-.2ZM137.2,81.5h0s0,0,0,0h0ZM138.4,81.2h-.3c0,0,.4,0,.4,0h.3c0,0-.4,0-.4,0ZM139.6,80.9h-.5c0,.1.6,0,.6,0h.5c0-.1-.6,0-.6,0ZM140.8,80.5l-.6.2h.7c0,0,.6-.2.6-.2h-.7ZM142,80.2l-.7.2h.8s.7-.2.7-.2c-.3,0-.5,0-.8,0ZM143.2,79.9l-.7.2h.9s.7-.2.7-.2h-.9ZM144.3,79.6c-.3,0-.5.1-.8.2.3,0,.6,0,.9,0l.8-.2c-.3,0-.6,0-1,0ZM145.5,79.3c-.3,0-.5.1-.8.2.3,0,.7,0,1,0,.3,0,.5-.1.8-.2-.3,0-.7,0-1,0ZM146.7,79c-.3,0-.6.1-.8.2.4,0,.7,0,1.1,0,.3,0,.6-.1.8-.2h-1.1ZM147.9,78.7c-.3,0-.6.2-.9.2.4,0,.7,0,1.1,0,.3,0,.6-.1.9-.2-.4,0-.7,0-1.1-.1ZM149.1,78.4c-.3,0-.6.2-.9.2.4,0,.8,0,1.1.1.3,0,.6-.1.9-.2-.4,0-.8,0-1.2-.1ZM150.2,78c-.3,0-.6.2-.9.2.4,0,.8,0,1.2.1.3,0,.6-.1.9-.2-.4,0-.8-.1-1.2-.2ZM151.4,77.7c-.3,0-.6.2-.9.2.4,0,.8.1,1.2.2.3,0,.6-.1.9-.2-.4,0-.8-.1-1.2-.2ZM152.6,77.4c-.3,0-.6.2-.9.3.4,0,.8.1,1.2.2.3,0,.6-.2.9-.2-.4,0-.8-.1-1.3-.2ZM153.7,77.1c-.3,0-.6.2-.9.3.4,0,.9.2,1.3.2.3,0,.6-.2.9-.2-.4,0-.9-.2-1.3-.3ZM154.9,76.7c-.3,0-.6.2-.9.3.4,0,.9.2,1.3.3.3,0,.6-.2.9-.2-.4,0-.9-.2-1.3-.3ZM156,76.4c-.3,0-.6.2-.9.3.4,0,.9.2,1.3.3.3,0,.6-.2.9-.2-.4-.1-.9-.2-1.3-.3ZM157.2,76.1c-.3,0-.6.2-.9.3.5.1.9.2,1.4.3.3,0,.6-.2,1-.2-.5-.1-.9-.2-1.4-.4ZM158.3,75.7c-.3,0-.6.2-.9.3.5.1.9.2,1.4.4.3,0,.6-.2,1-.3-.5-.1-.9-.3-1.4-.4ZM159.5,75.4c-.3,0-.6.2-.9.3.5.1.9.3,1.4.4.3,0,.6-.2,1-.3-.5-.1-1-.3-1.4-.4ZM160.6,75c-.3,0-.6.2-.9.3.5.1,1,.3,1.4.4.3,0,.6-.2,1-.3-.5-.2-1-.3-1.5-.5ZM161.7,74.7c-.3,0-.6.2-.9.3.5.2,1,.3,1.5.5.3,0,.6-.2,1-.3-.5-.2-1-.3-1.5-.5ZM162.9,74.3c-.3.1-.6.2-.9.3.5.2,1,.3,1.5.5.3,0,.6-.2,1-.3-.5-.2-1-.3-1.5-.5ZM164,74c-.3.1-.6.2-.9.3.5.2,1,.3,1.5.5.3,0,.6-.2,1-.3-.5-.2-1-.4-1.5-.6ZM165.1,73.6c-.3.1-.6.2-.9.3.5.2,1,.4,1.5.6.3,0,.6-.2,1-.3-.5-.2-1-.4-1.5-.6ZM166.2,73.2c-.3.1-.6.2-.9.3.5.2,1,.4,1.6.6.3,0,.6-.2,1-.3-.5-.2-1-.4-1.6-.6ZM167.3,72.9c-.3.1-.6.2-.9.3.5.2,1.1.4,1.6.6.3,0,.6-.2,1-.3-.5-.2-1.1-.4-1.6-.7ZM168.4,72.5c-.3.1-.6.2-.9.3.5.2,1.1.4,1.6.7.3,0,.6-.2,1-.3-.5-.2-1.1-.5-1.6-.7ZM169.5,72.1c-.3.1-.6.2-.9.3.5.2,1.1.5,1.6.7.3-.1.6-.2,1-.3-.5-.2-1.1-.5-1.6-.7ZM170.5,71.7c-.3.1-.6.2-.9.3.5.2,1.1.5,1.6.7.3-.1.6-.2.9-.3-.6-.3-1.1-.5-1.7-.8ZM171.6,71.3c-.3.1-.6.2-.9.3.6.3,1.1.5,1.7.8.3-.1.6-.2.9-.3-.6-.3-1.1-.5-1.7-.8ZM172.7,70.9c-.3.1-.6.2-.9.4.6.3,1.1.5,1.7.8.3-.1.6-.2.9-.3-.6-.3-1.1-.5-1.7-.8ZM173.7,70.5c-.3.1-.6.2-.9.4.6.3,1.1.5,1.7.8.3-.1.6-.2.9-.3-.6-.3-1.1-.6-1.7-.9ZM258.4.3c-.4-1.4-.8-2.8-1.3-4.2h.1c.4,1.3.8,2.6,1.2,3.9v.3ZM258.4,7.6c-1-3.7-2.1-7.5-3.3-11.5h.1c1.2,3.9,2.2,7.6,3.2,11.1v.4ZM258.4,16.7c-1.4-6.3-3.1-13.1-5.3-20.6h.1c2.1,7.2,3.9,13.9,5.2,20.1v.5ZM258.4,30.8c-1.1-9.8-3.5-21.3-7.4-34.7h.1c3.7,13.1,6.1,24.3,7.3,33.9v.8ZM3.6,157c35.4-49.7,84.3-63.1,126.3-73.8C86.6,92.9,36.5,105.6,1,157h-.1c36.2-52.4,87.6-64.7,131.4-74.4C87.2,91.3,34.6,102.9-1.7,157h-.1c37-55.1,90.8-66.2,136.5-75h0c-46.9,7.7-102.1,18.1-139,75h-.1c37.3-57.5,93.1-67.6,140.4-75.3h.3c-48.6,6.5-105.8,15.8-143.2,75.3h-.1c37.6-60,95.4-69.1,144.2-75.6h.5c-50.3,5.2-109.5,13.4-147.1,75.6h-.1c37.8-62.6,97.5-70.6,148-75.9l.6-.2c-51.9,4.1-113.2,11.1-151,76.1h-.1C25.8,91.7,87.5,84.9,139.5,80.7l.7-.2c-53.5,2.9-116.8,8.6-154.8,76.4h-.1C23.4,88.9,87.1,83.3,140.8,80.4l.7-.2c-55.2,1.5-120.5,6.1-158.5,76.7h-.1C21,86,86.6,81.6,142,80.1l.8-.2c-55.9.1-121.9,3.3-160.2,73.4v-.2C20.9,82.9,87.2,79.9,143.1,79.8l.8-.2c-56.4-1.2-122.8.5-161.4,69.3v-.2C21.3,79.8,87.9,78.3,144.3,79.5c.3,0,.6-.1.8-.2-56.8-2.6-123.7-2.3-162.6,65.1v-.2C21.6,76.8,88.6,76.6,145.5,79.2c.3,0,.6-.2.9-.2-57.3-4-124.5-5-163.9,61v-.2c39.4-66.1,106.8-64.9,164.2-60.9.3,0,.6-.2.9-.2-57.8-5.3-125.4-7.7-165.1,57v-.2c39.8-64.8,107.5-62.2,165.4-56.9.3,0,.6-.2.9-.2-58.2-6.6-126.3-10.4-166.3,53v-.2c40.1-63.4,108.3-59.5,166.5-52.9.3,0,.6-.2.9-.2-58.7-8-127.1-13.1-167.4,49v-.2c40.4-62.1,109-56.9,167.7-48.9.3,0,.6-.2.9-.3-59.2-9.3-127.9-15.7-168.6,45.1v-.2c40.8-60.8,109.7-54.2,168.9-44.9.3,0,.6-.2.9-.3-59.6-10.6-128.8-18.4-169.8,41.1v-.2c41.1-59.5,110.4-51.6,170-41,.3,0,.6-.2.9-.3-60.1-11.9-129.6-21-171,37.2v-.2c41.5-58.2,111.1-49,171.2-37.1.3,0,.6-.2.9-.3C94.2,63.5,24.2,53.1-17.5,110.1v-.2c41.8-56.9,111.8-46.5,172.4-33.3.3,0,.6-.2.9-.3-61-14.4-131.3-26.1-173.3,29.6v-.2c42.1-55.7,112.5-43.9,173.5-29.5.3,0,.6-.2.9-.3-61.4-15.7-132.1-28.7-174.5,25.8v-.2c42.5-54.4,113.2-41.4,174.7-25.7.3,0,.6-.2.9-.3-11.9-3.3-24.1-6.4-36.3-9-51.7-10.9-104.8-12-139.3,31v-.2c34.6-43,87.6-41.9,139.3-31,12.3,2.6,24.6,5.8,36.5,9,.3,0,.6-.2.9-.3-14.1-4.1-28.7-8.1-43.4-11.2-49.9-10.6-100.1-10.7-133.4,29.5v-.2C15.8,53.3,66.1,53.5,115.9,64c14.7,3.1,29.3,7.1,43.5,11.3.3,0,.6-.2,1-.3-16.2-5-33-9.9-49.7-13.4-48.2-10.2-96-9.7-128.2,28v-.2C14.7,51.8,62.5,51.3,110.7,61.5c16.8,3.6,33.7,8.4,49.9,13.5.3,0,.6-.2,1-.3-18.1-5.9-36.9-11.6-55.6-15.6-46.6-9.8-92.2-8.8-123.4,26.5v-.2C13.7,50.1,59.4,49.1,105.9,58.9c18.7,4,37.6,9.7,55.8,15.6.3-.1.6-.2,1-.3-19.9-6.9-40.7-13.4-61.1-17.8-45-9.5-88.7-8.2-119,25v-.2C12.8,48.2,56.5,46.9,101.6,56.4c20.5,4.3,41.4,11,61.3,17.8.3-.1.6-.2.9-.3-21.6-7.8-44.2-15.3-66.4-20-43.6-9.2-85.5-7.6-114.9,23.6v-.2c29.4-31.2,71.4-32.8,114.9-23.6,22.2,4.7,44.9,12.2,66.5,20,.3-.1.6-.2.9-.3-23.2-8.8-47.6-17.2-71.3-22.2-42.2-8.9-82.5-7.2-111.1,22.2v-.2c28.6-29.4,68.9-31.1,111.1-22.2,23.8,5,48.2,13.5,71.4,22.2.3-.1.6-.2.9-.3-24.8-9.7-50.8-19.1-76-24.4-40.9-8.6-79.6-6.8-107.5,20.9v-.2c27.9-27.7,66.6-29.5,107.5-20.9,25.3,5.3,51.4,14.7,76.2,24.5.3-.1.6-.2.9-.3-26.3-10.7-53.9-21-80.6-26.7-39.6-8.4-76.9-6.4-104,19.6v-.2c27.1-26,64.5-28,104.1-19.6,26.7,5.6,54.4,16,80.7,26.7.3-.1.6-.2.9-.3-27.7-11.8-57-23-84.9-28.9-38.4-8.1-74.4-6.2-100.8,18.4v-.2c26.4-24.5,62.4-26.5,100.8-18.4,28,5.9,57.3,17.2,85.1,29,.3-.1.6-.2.9-.3-29.1-12.8-59.9-25-89.1-31.2-37.2-7.9-71.9-5.9-97.6,17.2h0c25.8-23.2,60.5-25.2,97.7-17.3,29.3,6.2,60.1,18.5,89.3,31.3.3-.1.6-.2.9-.3-30.5-13.8-62.8-27.1-93.2-33.5-36-7.6-69.6-5.7-94.6,16.1h0c25.1-21.9,58.6-23.8,94.7-16.2,30.5,6.5,62.8,19.7,93.3,33.6.3-.1.6-.2.9-.3-31.9-14.9-65.6-29.2-97.2-35.9-34.9-7.4-67.3-5.5-91.8,15h0c24.5-20.6,56.9-22.5,91.8-15.1,31.7,6.7,65.4,21,97.3,35.9.3-.1.6-.2.9-.4-33.2-16-68.3-31.3-101-38.2-33.9-7.2-65.1-5.4-89,13.9h0c23.9-19.4,55.2-21.2,89-14,32.8,6.9,67.9,22.3,101.1,38.3.3-.1.6-.2.9-.4-34.4-17.1-71-33.4-104.8-40.6-32.8-6.9-63-5.2-86.3,12.9h0C5.8,24.5,36,22.8,68.8,29.7c33.8,7.2,70.4,23.5,104.9,40.6.4-.2.9-.4,1.3-.5,27.4-11.3,44.8-29.7,41-73.7h0c3.8,44.1-13.7,62.5-41.1,73.8-.4.2-.8.3-1.2.5.6.3,1.2.6,1.7.9,1.7-.6,3.4-1.3,5-1.9,26.3-10.8,42.5-29.4,38.1-73.2h0c4.5,43.9-11.8,62.5-38.1,73.3-1.6.7-3.3,1.3-4.9,1.9.6.3,1.1.6,1.7.9,2.9-.9,5.7-2,8.4-3.1,25.4-10.4,40.6-29.2,35.4-73h0c5.2,43.9-10,62.7-35.5,73.1-2.7,1.1-5.4,2.1-8.3,3,.6.3,1.1.6,1.7.9,4-1.2,7.8-2.5,11.5-3.9,24.6-10.1,38.9-29.1,33-73.1h0c5.9,44.1-8.4,63-33.1,73.2-3.6,1.5-7.4,2.8-11.3,3.9.6.3,1.1.6,1.7.9,5.1-1.3,9.9-2.8,14.3-4.6,24-9.9,37.4-29,30.8-73.3h0c6.6,44.4-6.9,63.6-30.9,73.5-4.4,1.8-9.1,3.3-14.2,4.6.6.3,1.1.6,1.7.9,6.1-1.3,11.8-3,16.9-5.1,23.4-9.6,36.1-29,28.8-73.8h0c7.3,44.8-5.4,64.2-28.9,73.9-5.1,2.1-10.8,3.7-16.8,5.1.6.3,1.1.6,1.7.9,7.1-1.3,13.6-3.1,19.4-5.4,22.9-9.4,34.9-29.1,26.9-74.4h0c8,45.4-4,65-26.9,74.5-5.8,2.4-12.3,4.1-19.3,5.4.6.3,1.1.6,1.7.8,8-1.2,15.4-3,21.8-5.7,22.4-9.2,33.8-29.2,25-75.1h0c8.8,46-2.6,66-25.1,75.2-6.4,2.6-13.7,4.4-21.6,5.6.6.3,1.1.6,1.7.8,8.9-1.1,17-2.9,24-5.7,22-9.1,32.8-29.3,23.3-75.9h0c9.5,46.7-1.3,67-23.3,76-6.9,2.9-15,4.6-23.9,5.7.6.3,1.1.6,1.7.8,9.8-.9,18.7-2.6,26.2-5.7,21.7-8.9,31.9-29.5,21.6-76.9h0c10.3,47.5,0,68.1-21.6,77-7.4,3.1-16.2,4.8-26,5.7.5.3,1.1.6,1.6.8,10.7-.7,20.3-2.3,28.2-5.6,21.4-8.8,31-29.7,19.9-78h0c11.1,48.3,1.4,69.3-20,78.1-7.9,3.3-17.4,4.8-28.1,5.6l1.6.8c11.6-.4,21.9-1.9,30.2-5.3,21.1-8.7,30.2-29.9,18.3-79.1h0c11.9,49.2,2.7,70.5-18.4,79.2-8.3,3.4-18.6,4.9-30.1,5.3l1.6.8c12.4-.1,23.4-1.4,32.2-5,20.8-8.6,29.4-30.2,16.8-80.4h.1c12.7,50.2,4,71.9-16.8,80.5-8.7,3.6-19.6,4.9-32,5l1.6.8c13.3.2,24.9-.8,34.1-4.6,20.6-8.5,28.7-30.5,15.2-81.7h.1c13.5,51.2,5.4,73.3-15.3,81.8-9.1,3.8-20.7,4.8-33.9,4.6l1.6.8c14.1.6,26.4-.2,35.9-4.1,20.4-8.4,28-30.8,13.7-83.1h.1c14.3,52.3,6.7,74.8-13.7,83.2-9.5,3.9-21.7,4.8-35.7,4.2l1.6.8c14.9,1,27.9.5,37.7-3.6,10.4-4.3,17.3-12.4,19.5-26.5v.6c-2.3,13.8-9.2,21.8-19.5,26-9.8,4-22.6,4.6-37.5,3.6l1.6.8c15.8,1.5,29.3,1.2,39.5-3,7.2-3,12.7-7.9,16-15.5v.3c-3.3,7.5-8.8,12.4-15.9,15.3-10.1,4.2-23.6,4.5-39.2,3l.9.4.7.3c16.6,2,30.7,2,41.2-2.3,5.1-2.1,9.3-5.2,12.5-9.7v.2c-3.1,4.4-7.3,7.5-12.4,9.6-10.4,4.3-24.5,4.3-40.9,2.3l1.5.8c17.4,2.5,32.2,2.8,42.9-1.6,3.4-1.4,6.4-3.3,9-5.8h0c-2.5,2.6-5.5,4.5-8.9,5.9-10.7,4.4-25.4,4-42.6,1.6l1.5.8c18.2,3,33.6,3.7,44.5-.8,2-.8,3.8-1.8,5.5-3h0c-1.7,1.3-3.5,2.3-5.5,3.1-10.9,4.5-26.2,3.8-44.2.8l1.5.7c18.9,3.6,35,4.7,46.2,0,.7-.3,1.4-.6,2.1-1h0c-.7.5-1.4.8-2.1,1.1-11.1,4.6-27.1,3.5-45.9,0l1.4.7c19,4,35.1,5.5,46.5,1.5h0c-11.3,4.2-27.3,2.7-46.1-1.3l1.4.7c17.9,4.2,33.4,6.2,44.7,3.4h0c-11.3,2.9-26.6.9-44.3-3.2l1.4.7c16.9,4.3,31.7,6.7,43,5h0c-11.2,1.8-25.8-.6-42.5-4.8.4.2.9.5,1.3.7,16,4.4,30.1,7.1,41.2,6.3h0c-11,.8-24.9-1.8-40.7-6.1.4.2.9.4,1.3.6,15.1,4.4,28.6,7.4,39.5,7.4h0c-10.8,0-24-2.8-39-7.2l1.2.6c14.3,4.5,27.1,7.6,37.7,8.3h0c-10.5-.6-23.1-3.7-37.2-8,.4.2.8.4,1.2.6,13.5,4.5,25.7,7.8,36,9h0c-10.2-1.1-22.1-4.3-35.4-8.7.4.2.7.4,1.1.5,12.7,4.4,24.3,7.9,34.3,9.6h0c-9.8-1.5-21.1-4.9-33.5-9.2.3.2.7.3,1,.5,12,4.4,22.9,7.9,32.5,10h0c-9.4-1.9-20.1-5.3-31.7-9.5l.9.4c11.2,4.3,21.6,7.9,30.8,10.2h0c-9-2.1-19-5.6-29.8-9.7.2.1.5.2.7.4,10.5,4.2,20.3,7.8,29.1,10.4h0c-8.5-2.3-17.9-5.7-27.9-9.8l.5.2c9.8,4.1,19,7.7,27.4,10.4h0c-8-2.4-16.6-5.8-25.9-9.6h.2c9.2,4.1,17.8,7.6,25.7,10.4h0c-7.1-2.4-14.8-5.5-23-9,8.1,3.7,15.8,7,23,9.7h0c-6.2-2.2-12.8-5-19.7-8.1,6.9,3.2,13.5,6.1,19.7,8.6h0c-5.2-2-10.6-4.4-16.3-7,5.7,2.7,11.1,5.2,16.3,7.4h0c-7.1-2.9-14.6-6.4-22.4-10.3-1.1-.5-2.2-1-3.3-1.6-1.1-.5-2.2-1-3.3-1.5-1.1-.5-2.2-1-3.3-1.5-1.1-.5-2.1-.9-3.2-1.4-1.1-.4-2.2-.9-3.3-1.4-1.1-.4-2.1-.8-3.2-1.3-1.1-.4-2.2-.8-3.2-1.3-1-.4-2.1-.8-3.1-1.2-1.1-.4-2.1-.8-3.2-1.1-1-.4-2.1-.7-3.1-1.1-1-.3-2.1-.7-3.1-1-1-.3-2.1-.6-3.1-1-1-.3-2-.6-3.1-.9-1-.3-2-.6-3.1-.8-1-.3-2-.5-3-.8-1-.2-2-.5-3-.7-1-.2-2-.4-3-.6-1-.2-2-.4-2.9-.6-1-.2-1.9-.3-2.9-.5-1-.2-1.9-.3-2.9-.5-1-.1-1.9-.3-2.9-.4-.9-.1-1.9-.2-2.8-.3-.9,0-1.9-.2-2.8-.3-.9,0-1.9-.1-2.8-.2-.9,0-1.8,0-2.8-.1-.9,0-1.8,0-2.7,0-.9,0-1.8,0-2.7,0-.9,0-1.8,0-2.7,0-.9,0-1.8,0-2.6.1-.9,0-1.7.1-2.6.2-.9,0-1.7.2-2.6.3-.8.1-1.7.2-2.6.3l-2.2.4h-.3c0,0-1.6.4-1.6.4l-.9.2-1.1.2-1.4.3h-.5c-42.7,10.9-93,23.7-129.3,74.6h-.1Z"/>
    </clipPath>
    <linearGradient id="linear-gradient" x1="815.5" y1="175.1" x2="961.7" y2="334.6" gradientTransform="translate(-170.4 1000.5) rotate(-90)" gradientUnits="userSpaceOnUse">
      <stop offset="0" stop-color="#060606"/>
      <stop offset="1" stop-color="#09c3f4"/>
    </linearGradient>
  </defs>
  <rect class="st5" x="0" y="-1.4" width="240.9" height="155.9"/>
  <g class="st10">
    <g class="st7">
      <g>
        <line class="st1" x1="-99.1" y1="273.7" x2="-89.2" y2="273.7"/>
        <line class="st1" x1="-84.3" y1="288.6" x2="-84.3" y2="278.6"/>
        <line class="st1" x1="325.2" y1="288.6" x2="325.2" y2="278.6"/>
        <line class="st1" x1="340.1" y1="273.7" x2="330.2" y2="273.7"/>
        <line class="st1" x1="-99.1" y1="-120.6" x2="-89.2" y2="-120.6"/>
        <line class="st1" x1="-84.3" y1="-135.5" x2="-84.3" y2="-125.6"/>
        <line class="st1" x1="325.2" y1="-135.5" x2="325.2" y2="-125.6"/>
        <line class="st1" x1="340.1" y1="-120.6" x2="330.2" y2="-120.6"/>
      </g>
    </g>
    <g class="st6">
      <g class="st8">
        <rect class="st9" x="-17.5" y="-3.9" width="280.9" height="160.9"/>
      </g>
    </g>
  </g>
  <g>
    <g>
      <path class="st4" d="M70.5,78.7v-4.9c0-1.1-.6-1.5-1.2-1.5s-1.5.5-1.5,1.7v4.7h-3.3v-8.8h2.9v1c.9-.9,2-1.2,2.9-1.2,1.9,0,3.5,1,3.5,4.2v4.9h-3.3Z"/>
      <path class="st4" d="M85.2,74.3c0,3.2-2.6,4.6-5,4.6s-5-1.4-5-4.6,2.5-4.6,5-4.6,5,1.4,5,4.6ZM82,74.3c0-1-.7-1.9-1.8-1.9s-1.8.9-1.8,1.9.7,1.9,1.8,1.9,1.8-.8,1.8-1.9Z"/>
      <path class="st4" d="M87.7,76l.9-5.3h-1.8l.2-.9h1.8l.4-2.5h1.1c0-.1-.5,2.5-.5,2.5h2.9l-.2.9h-2.9l-.9,5.3c-.2,1.3,0,1.9,1.1,1.9s1.1-.2,1.6-.4l.2.9c-.7.3-1.4.5-2,.5-1.6,0-2.3-.9-2-2.8Z"/>
      <path class="st4" d="M93.3,75.1c0-3,2.4-5.4,5.4-5.4s3.8,1.5,3.8,3.8-2.4,5.4-5.4,5.4-3.8-1.5-3.8-3.8ZM97.2,77.9c2.3,0,4.3-2,4.3-4.4s-1.2-2.9-3-2.9-4.3,2-4.3,4.4,1.2,2.9,3,2.9Z"/>
      <path class="st4" d="M104.4,74.9l.9-5.1h1l-.9,5c-.3,2,.4,3,2.3,3s3.4-1.3,3.7-3.1l.9-4.9h1l-1.6,8.8h-.9l.3-1.5c-.9,1.1-2.2,1.7-3.5,1.7-2.3,0-3.5-1.5-3.1-3.9Z"/>
      <path class="st4" d="M114.8,74.2c.5-2.7,2.6-4.5,5.3-4.5s2.3.4,3,1.3l-.7.6c-.5-.6-1.4-1-2.4-1-2.1,0-3.9,1.5-4.2,3.7-.4,2.1.8,3.6,2.9,3.6s2-.4,2.8-1.1l.6.8c-1,.8-2.3,1.3-3.5,1.3-2.7,0-4.3-2-3.8-4.7Z"/>
      <path class="st4" d="M126.1,66.2h1l-.9,5.1c.9-1,2.2-1.6,3.5-1.6,2.4,0,3.6,1.5,3.1,3.9l-.9,5.1h-1l.9-5c.3-2-.4-3-2.3-3s-3.4,1.3-3.8,3.1l-.9,4.9h-1l2.2-12.5Z"/>
      <path class="st4" d="M136.3,69.8h.9l-.3,1.6c.9-1.1,2.2-1.7,3.6-1.7,2.4,0,3.6,1.5,3.1,3.9l-.9,5.1h-1l.9-5c.3-2-.4-3-2.3-3s-3.4,1.3-3.8,3.1l-.9,4.9h-1l1.6-8.8Z"/>
      <path class="st4" d="M145.7,74.3c.5-2.8,2.6-4.6,5.2-4.6s4.2,1.9,3.6,5h-7.9c-.2,2,.9,3.3,2.9,3.3s2.5-.5,3.3-1.3l.6.7c-1,1-2.5,1.6-4,1.6-2.7,0-4.3-2-3.8-4.6ZM153.7,73.8c.2-2-.8-3.1-2.8-3.1s-3.5,1.2-4,3.1h6.9Z"/>
      <path class="st4" d="M155.6,77.3l.6-.7c.7.9,1.8,1.3,3.2,1.3s2.8-.7,2.8-1.8-.6-1.2-2.5-1.6c-2.1-.3-3.1-1.1-3.1-2.3s1.5-2.6,3.8-2.6,2.5.4,3.4,1.3l-.6.7c-.8-.7-1.6-1-2.8-1-1.7,0-2.7.6-2.7,1.6s.6,1.2,2.3,1.5c2.4.4,3.2,1.1,3.2,2.4s-1.6,2.7-3.9,2.7-2.9-.5-3.8-1.5Z"/>
      <path class="st4" d="M164.5,77.3l.6-.7c.7.9,1.8,1.3,3.2,1.3s2.8-.7,2.8-1.8-.6-1.2-2.5-1.6c-2.1-.3-3.1-1.1-3.1-2.3s1.5-2.6,3.8-2.6,2.5.4,3.4,1.3l-.6.7c-.8-.7-1.6-1-2.8-1-1.7,0-2.7.6-2.7,1.6s.6,1.2,2.3,1.5c2.4.4,3.2,1.1,3.2,2.4s-1.6,2.7-3.9,2.7-2.9-.5-3.8-1.5Z"/>
      <g>
        <path class="st4" d="M164.9,66.6h0s.5.8.5.8h0c3.7-2.2,8.2-1.6,10,1.2l1.1-.6c-2.1-3.3-7.3-4-11.6-1.4Z"/>
        <path class="st4" d="M165.9,68.2h0s.6.9.6.9h0c2.6-1.5,5.7-1.1,7,.9l1.1-.6c-1.6-2.5-5.5-3-8.6-1.1Z"/>
      </g>
    </g>
    <g>
      <path class="st4" d="M97.4,86.1c.2-1.1,1-1.8,2.1-1.8s.9.2,1.2.5l-.3.3c-.2-.2-.5-.4-.9-.4-.8,0-1.4.6-1.6,1.4-.1.8.3,1.3,1.1,1.3s.8-.1,1.1-.4l.3.4c-.4.3-.9.5-1.4.5-1.1,0-1.7-.8-1.5-1.9Z"/>
      <path class="st4" d="M101,86.4c0-1.2,1-2.2,2.2-2.2s1.5.6,1.5,1.5-.9,2.2-2.2,2.2-1.6-.6-1.6-1.5ZM102.6,87.5c.8,0,1.6-.7,1.6-1.6s-.4-1.1-1.1-1.1-1.6.7-1.6,1.6.4,1.1,1.1,1.1Z"/>
      <path class="st4" d="M105.9,84.4h.5v.6c.3-.4.8-.6,1.3-.6.9,0,1.4.6,1.3,1.6l-.4,2h-.5l.3-2c.1-.7-.2-1.1-.8-1.1s-1.3.5-1.4,1.2l-.3,1.9h-.5l.6-3.5Z"/>
      <path class="st4" d="M110.2,84.4h.5v.6c.3-.4.8-.6,1.3-.6.9,0,1.4.6,1.3,1.6l-.4,2h-.5l.3-2c.1-.7-.2-1.1-.8-1.1s-1.3.5-1.4,1.2l-.3,1.9h-.5l.6-3.5Z"/>
      <path class="st4" d="M113.9,86.1c.2-1.1,1-1.8,2.1-1.8s1.7.8,1.4,2h-3c0,.7.3,1.1,1.1,1.1s1-.2,1.3-.5l.3.3c-.4.4-1,.6-1.6.6-1.1,0-1.8-.8-1.6-1.8ZM117,85.9c0-.7-.3-1.1-1-1.1s-1.3.4-1.5,1.1h2.5Z"/>
      <path class="st4" d="M118.1,86.1c.2-1.1,1-1.8,2.1-1.8s.9.2,1.2.5l-.3.3c-.2-.2-.5-.4-.9-.4-.8,0-1.4.6-1.6,1.4-.1.8.3,1.3,1.1,1.3s.8-.1,1.1-.4l.3.4c-.4.3-.9.5-1.4.5-1.1,0-1.7-.8-1.5-1.9Z"/>
      <path class="st4" d="M122.3,86.8l.3-2h-.7v-.5h.8l.2-1h.5s-.2,1-.2,1h1.1v.5h-1.2l-.3,1.9c0,.5,0,.7.4.7s.4,0,.6-.1v.5c-.2.1-.4.2-.7.2-.7,0-1-.4-.8-1.1Z"/>
      <path class="st4" d="M126.4,84.4h.5l.2,1.4.2,1.5,1.5-2.9h.5l.5,2.9.8-1.5.7-1.4h.6l-1.8,3.5h-.6l-.2-1.1-.3-1.6-.8,1.6-.6,1.1h-.6l-.6-3.5Z"/>
      <path class="st4" d="M132.7,84.4h.5l-.6,3.5h-.5l.6-3.5ZM133.2,82.9c.2,0,.4.2.3.4s-.2.4-.4.4-.4-.2-.3-.4c0-.2.2-.4.4-.4Z"/>
      <path class="st4" d="M134.2,86.8l.3-2h-.7v-.5h.8l.2-1h.5s-.2,1-.2,1h1.1v.5h-1.2l-.3,1.9c0,.5,0,.7.4.7s.4,0,.6-.1v.5c-.2.1-.4.2-.7.2-.7,0-1-.4-.8-1.1Z"/>
      <path class="st4" d="M137.3,82.9h.5l-.3,2c.3-.4.8-.6,1.3-.6.9,0,1.4.6,1.3,1.6l-.4,2h-.5l.3-2c.1-.7-.2-1.1-.8-1.1s-1.3.5-1.4,1.2l-.3,1.9h-.5l.9-5Z"/>
      <path class="st4" d="M140.8,86.4c0-1.2,1-2.2,2.2-2.2s1.5.6,1.5,1.5-.9,2.2-2.2,2.2-1.6-.6-1.6-1.5ZM142.4,87.5c.8,0,1.6-.7,1.6-1.6s-.4-1.1-1.1-1.1-1.6.7-1.6,1.6.4,1.1,1.1,1.1Z"/>
      <path class="st4" d="M145.3,86.4l.3-2h.5l-.3,2c-.1.7.1,1.1.8,1.1s1.3-.5,1.4-1.2l.3-1.9h.5l-.6,3.5h-.5v-.6c-.2.4-.7.6-1.3.6-.9,0-1.4-.6-1.2-1.6Z"/>
      <path class="st4" d="M149.9,86.8l.3-2h-.7v-.5h.8l.2-1h.5s-.2,1-.2,1h1.1v.5h-1.2l-.3,1.9c0,.5,0,.7.4.7s.4,0,.6-.1v.5c-.2.1-.4.2-.7.2-.7,0-1-.4-.8-1.1Z"/>
      <path class="st4" d="M154.5,86.6v-1.5h-.6v-.8h.6v-.9h.9c0,0,0,.9,0,.9h.9v.8h-.9v1.5c0,.3.2.5.4.5s.3,0,.4,0l.2.7c-.3.1-.5.2-.9.2-.7,0-1.2-.4-1.2-1.3Z"/>
      <path class="st4" d="M156.9,86.1c0-1.1.7-1.8,1.9-1.8s1.9.8,1.9,1.8-.7,1.8-1.9,1.8-1.9-.8-1.9-1.8ZM158.8,87.1c.6,0,1-.4,1-1s-.4-1-1-1-1,.4-1,1,.4,1,1,1Z"/>
      <path class="st4" d="M161.3,86.3v-2h.9v1.9c0,.5.3.9.7.9s.8-.4.8-.9v-1.8h.9v3.5h-.8v-.4c-.3.3-.7.5-1.2.5-.9,0-1.5-.6-1.5-1.6Z"/>
      <path class="st4" d="M165.5,86.1c0-1.1.8-1.8,1.9-1.8s1,.2,1.4.5l-.5.6c-.2-.2-.5-.3-.8-.3-.6,0-1,.4-1,1s.4,1,1,1,.6-.1.8-.3l.6.6c-.4.4-.8.6-1.4.6-1.2,0-1.9-.7-1.9-1.8Z"/>
      <path class="st4" d="M169.4,82.9h.9v1.9c.3-.3.6-.5,1.1-.5.9,0,1.5.6,1.5,1.6v2h-.9v-1.9c0-.5-.3-.9-.7-.9s-.9.4-.9.9v1.9h-.9v-5Z"/>
    </g>
    <rect class="st4" x="64.5" y="86" width="29.6" height=".6"/>
  </g>
  <g>
    <g>
      <path class="st3" d="M224.2,12.1c2.3,1.2,3.8,3.6,3.8,6.4s-1.5,5.2-3.8,6.4l.8.8c2.5-1.5,4.1-4.1,4.1-7.2s-1.6-5.7-4.1-7.2l-.8.8Z"/>
      <path class="st3" d="M226.9,18.5c0-2.5-1.4-4.6-3.5-5.6l-.8.8c1.9.7,3.3,2.6,3.3,4.8s-1.4,4-3.3,4.8l.8.8c2.1-1,3.5-3.1,3.5-5.6"/>
      <path class="st3" d="M224.7,18.5c0-1.9-1.3-3.5-3-3.9l-1,1c1.6,0,2.9,1.3,2.9,2.9s-1.3,2.9-2.9,2.9l1,1c1.7-.4,3-2,3-3.9"/>
    </g>
    <g>
      <path class="st4" d="M205.8,15.9l-1,5h-.8l-2.1-3.5-.7,3.5h-.9l1-5h.8l2.1,3.5.7-3.5h.9Z"/>
      <path class="st4" d="M208,16.7l-.3,1.5h2.4l-.2.8h-2.4l-.4,1.9h-.9l1-5h3.7l-.2.8h-2.7Z"/>
      <path class="st4" d="M210.8,18.9c0-1.7,1.2-3,3.1-3s1.6.3,1.9.8l-.7.6c-.3-.4-.7-.6-1.3-.6-1.3,0-2.1,1-2.1,2.1s.5,1.4,1.6,1.4,1-.2,1.4-.6l.5.6c-.5.6-1.2.8-2,.8-1.5,0-2.4-.9-2.4-2.1Z"/>
    </g>
  </g>
  <g>
    <path class="st4" d="M88,134.3l-1.9,3.4h-.4l-.6-2.8-1.6,2.8h-.4l-.7-3.4h.4l.6,2.9,1.7-2.9h.4l.6,2.9,1.6-2.9h.4Z"/>
    <path class="st4" d="M93.7,134.3l-1.9,3.4h-.4l-.6-2.8-1.6,2.8h-.4l-.7-3.4h.4l.6,2.9,1.7-2.9h.4l.6,2.9,1.6-2.9h.4Z"/>
    <path class="st4" d="M99.4,134.3l-1.9,3.4h-.4l-.6-2.8-1.6,2.8h-.4l-.7-3.4h.4l.6,2.9,1.7-2.9h.4l.6,2.9,1.6-2.9h.4Z"/>
    <path class="st4" d="M98.9,137.4c0-.2.2-.4.4-.4s.3.1.3.3-.2.4-.4.4-.3-.1-.3-.3Z"/>
    <path class="st4" d="M104.2,135.7v2h-1v-1.8c0-.6-.3-.8-.7-.8s-.8.3-.8.9v1.7h-1v-3.5h1v.4c.3-.3.7-.5,1.2-.5.8,0,1.4.5,1.4,1.5Z"/>
    <path class="st4" d="M104.9,135.9c0-1.1.8-1.8,1.9-1.8s1.9.7,1.9,1.8-.8,1.8-1.9,1.8-1.9-.7-1.9-1.8ZM107.8,135.9c0-.6-.4-1-.9-1s-.9.4-.9,1,.4,1,.9,1,.9-.4.9-1Z"/>
    <path class="st4" d="M111.5,137.5c-.2.2-.5.2-.8.2-.7,0-1.1-.4-1.1-1.1v-1.9h-.6v-.5h.6v-.8h.6v.8h1v.5h-1v1.9c0,.4.2.6.5.6s.4,0,.5-.2l.2.4Z"/>
    <path class="st4" d="M111.8,136c0-1,.8-1.8,1.8-1.8s1.8.7,1.8,1.8-.8,1.8-1.8,1.8-1.8-.7-1.8-1.8ZM114.8,136c0-.7-.5-1.2-1.2-1.2s-1.2.5-1.2,1.2.5,1.2,1.2,1.2,1.2-.5,1.2-1.2Z"/>
    <path class="st4" d="M119.5,134.2v3.4h-.6v-.5c-.3.4-.7.6-1.2.6-.9,0-1.5-.5-1.5-1.5v-2h.6v1.9c0,.7.3,1,.9,1s1.1-.4,1.1-1.1v-1.8h.6Z"/>
    <path class="st4" d="M120.4,136c0-1,.8-1.8,1.8-1.8s1.1.3,1.4.7l-.5.3c-.2-.3-.6-.5-.9-.5-.7,0-1.2.5-1.2,1.2s.5,1.2,1.2,1.2.7-.2.9-.5l.5.3c-.3.5-.8.7-1.4.7-1.1,0-1.8-.7-1.8-1.8Z"/>
    <path class="st4" d="M127.6,135.7v2h-.6v-1.9c0-.7-.3-1-.9-1s-1.1.4-1.1,1.1v1.8h-.6v-4.8h.6v1.9c.3-.3.7-.5,1.2-.5.8,0,1.4.5,1.4,1.5Z"/>
    <path class="st4" d="M132,135.7v2h-.6v-1.9c0-.7-.3-1-.9-1s-1.1.4-1.1,1.1v1.8h-.6v-3.4h.6v.5c.3-.4.7-.6,1.2-.6.8,0,1.4.5,1.4,1.5Z"/>
    <path class="st4" d="M136.3,136.2h-2.8c0,.6.6,1,1.2,1s.7-.1,1-.4l.3.4c-.3.4-.8.6-1.4.6-1.1,0-1.9-.7-1.9-1.8s.7-1.8,1.7-1.8,1.7.7,1.7,1.8,0,.1,0,.2ZM133.5,135.7h2.2c0-.6-.5-1-1.1-1s-1,.4-1.1,1Z"/>
    <path class="st4" d="M136.8,137.3l.3-.5c.3.2.8.4,1.2.4s.8-.2.8-.5c0-.8-2.2-.1-2.2-1.5s.6-1,1.4-1,1,.1,1.3.3l-.3.5c-.3-.2-.7-.3-1-.3-.5,0-.8.2-.8.5,0,.8,2.2.1,2.2,1.5s-.6,1-1.5,1-1.1-.2-1.4-.4Z"/>
    <path class="st4" d="M140,137.3l.3-.5c.3.2.8.4,1.2.4s.8-.2.8-.5c0-.8-2.2-.1-2.2-1.5s.6-1,1.4-1,1,.1,1.3.3l-.3.5c-.3-.2-.7-.3-1-.3-.5,0-.8.2-.8.5,0,.8,2.2.1,2.2,1.5s-.6,1-1.5,1-1.1-.2-1.4-.4Z"/>
    <path class="st4" d="M143.5,137.4c0-.2.2-.4.3-.4s.4.1.4.4-.2.4-.4.4-.3-.2-.3-.4Z"/>
    <path class="st4" d="M144.7,136c0-1,.7-1.7,1.8-1.7s1.1.2,1.3.7l-.3.2c-.2-.3-.6-.5-1-.5-.7,0-1.3.5-1.3,1.3s.5,1.3,1.3,1.3.8-.2,1-.5l.3.2c-.3.4-.8.7-1.3.7-1,0-1.8-.7-1.8-1.7Z"/>
    <path class="st4" d="M148.3,136c0-1,.7-1.7,1.7-1.7s1.7.7,1.7,1.7-.7,1.7-1.7,1.7-1.7-.7-1.7-1.7ZM151.3,136c0-.8-.5-1.3-1.3-1.3s-1.3.5-1.3,1.3.5,1.3,1.3,1.3,1.3-.5,1.3-1.3Z"/>
    <path class="st4" d="M158.4,135.7v2h-.5v-1.9c0-.7-.4-1.1-1-1.1s-1.1.5-1.1,1.2v1.8h-.5v-1.9c0-.7-.4-1.1-1-1.1s-1.1.5-1.1,1.2v1.8h-.5v-3.4h.4v.6c.2-.4.7-.7,1.3-.7s1,.2,1.2.7c.2-.4.7-.7,1.4-.7s1.4.5,1.4,1.5Z"/>
  </g>
</svg>